<?xml version="1.0" encoding="utf-8"?>
<!-- Generator: Adobe Illustrator 16.0.3, SVG Export Plug-In . SVG Version: 6.00 Build 0)  -->
<!DOCTYPE svg PUBLIC "-//W3C//DTD SVG 1.1//EN" "http://www.w3.org/Graphics/SVG/1.1/DTD/svg11.dtd">
<svg version="1.1" id="Layer_1" xmlns="http://www.w3.org/2000/svg" xmlns:xlink="http://www.w3.org/1999/xlink" x="0px" y="0px"
	 width="2208px" height="2208px" viewBox="0 0 2208 2208" enable-background="new 0 0 2208 2208" xml:space="preserve">
<g>
	<g>
		<polygon fill="#62B522" points="1695.866,309.024 1690.543,309.024 495.546,309.024 495.546,1479.662 495.546,1509.345 
			837.138,1509.345 1093.044,1861.767 1309.547,1509.345 1695.866,1509.345 		"/>
	</g>
	<path fill="#FFFFFF" d="M1570.334,1220.021l-69.567-87.349c-0.149-0.185-0.297-0.406-0.407-0.591l-78.772-144.347l-37.963-77.331
		l-1.958-4.176l-3.327-3.179l-52.046-49.718l-12.754-12.234c-1.516-1.405-3.807-1.553-5.508-0.259l-13.973,10.794l-28.02,21.661
		l-3.77,2.884c-0.48,0.369-0.888,0.85-1.183,1.441l-2.107,4.178l-28.057,56.149l-1.184,2.403l-0.702,2.661l-14.009,56.15
		l-0.813,3.327l-0.223,0.813l-99.804-182.791l-64.541-131.41l-3.326-7.097l-5.656-5.434l-88.457-84.465l-21.661-20.774
		c-2.587-2.402-6.506-2.625-9.315-0.48l-23.767,18.372l-47.722,36.78l-6.284,4.879c-0.85,0.628-1.552,1.516-1.996,2.477
		l-3.622,7.134l-47.686,95.406l-2.069,4.103l-1.108,4.473l-23.843,95.443l-1.405,5.655l-22.66,79.917
		c-0.073,0.26-0.147,0.518-0.295,0.777l-121.466,290.69c-1.96,4.695,1.479,9.907,6.58,9.907h509.228h228.256h205.709
		C1570.593,1226.86,1572.551,1222.757,1570.334,1220.021"/>
</g>
</svg>
