<?xml version="1.0" encoding="utf-8"?>
<!-- Generator: Adobe Illustrator 16.0.3, SVG Export Plug-In . SVG Version: 6.00 Build 0)  -->
<!DOCTYPE svg PUBLIC "-//W3C//DTD SVG 1.1//EN" "http://www.w3.org/Graphics/SVG/1.1/DTD/svg11.dtd">
<svg version="1.1" id="Layer_1" xmlns="http://www.w3.org/2000/svg" xmlns:xlink="http://www.w3.org/1999/xlink" x="0px" y="0px"
	 width="2208px" height="2208px" viewBox="0 0 2208 2208" enable-background="new 0 0 2208 2208" xml:space="preserve">
<g>
	<polygon fill="#FFA311" points="1702.624,302.074 1697.249,302.074 490.51,302.074 490.51,1484.251 490.51,1514.188 
		835.458,1514.188 1093.879,1870.073 1312.509,1514.188 1702.624,1514.188 	"/>
	<path fill="#FFFFFF" d="M1492.431,893.872c4.59,179.473-119.114,335.392-296.16,368.202
		c-155.024,28.744-285.671-17.769-381.231-144.01C678.568,937.807,744.489,677.63,948.076,578.973
		c150.134-72.752,327.367-44.122,441.666,71.409C1453.05,714.399,1490.078,802.119,1492.431,893.872 M1123.033,1195.406
		c60.023,0.374,116.574-17.805,161.443-51.96c115.791-87.944,150.058-253.009,79.732-383.806
		c-64.839-120.421-202.02-177.121-330.987-134.008c-106.573,35.611-169.805,112.319-190.895,221.355
		C807.089,1029.298,937.251,1196.678,1123.033,1195.406"/>
	<path fill="#FFFFFF" d="M1079.36,929.558v94.066h179.583v74.208H979.283V712.01h279.625v73.909
		c-5.04,0.224-9.744,0.709-14.521,0.747c-51.063,0.037-102.13,0.187-153.119-0.149c-9.183-0.037-13.139,2.053-12.692,12.169
		c0.785,17.843,0.15,35.722,0.15,55.096h14.334c46.958,0,93.917,0.336,140.876-0.262c11.086-0.148,14.146,3.285,13.587,13.849
		c-0.821,15.903-0.821,31.879,0,47.78c0.598,11.049-2.65,14.819-14.222,14.67c-46.138-0.635-92.313-0.261-138.45-0.261H1079.36z"/>
</g>
</svg>
