<?xml version="1.0" encoding="utf-8"?>
<!-- Generator: Adobe Illustrator 16.0.3, SVG Export Plug-In . SVG Version: 6.00 Build 0)  -->
<!DOCTYPE svg PUBLIC "-//W3C//DTD SVG 1.1//EN" "http://www.w3.org/Graphics/SVG/1.1/DTD/svg11.dtd">
<svg version="1.1" id="Layer_1" xmlns="http://www.w3.org/2000/svg" xmlns:xlink="http://www.w3.org/1999/xlink" x="0px" y="0px"
	 width="2208px" height="2208px" viewBox="0 0 2208 2208" enable-background="new 0 0 2208 2208" xml:space="preserve">
<g>
	<path d="M1944.656,1079.662c10.343,403.04-267.419,752.936-664.79,826.627c-347.98,64.411-641.332-39.963-855.82-323.395
		C117.728,1178.365,265.679,594.285,722.783,372.784c337.069-163.256,734.724-99.059,991.3,160.281
		C1856.296,676.764,1939.415,873.749,1944.656,1079.662 M1115.476,1756.566c134.773,0.779,261.681-39.965,362.439-116.561
		c259.906-197.41,336.789-568.139,178.915-861.632c-145.541-270.323-453.417-397.584-743.015-300.792
		c-239.216,80-381.145,252.042-428.404,496.927C406.19,1383.783,698.478,1759.4,1115.476,1756.566"/>
	<path d="M1017.408,1159.73v211.299h403.113v166.516h-627.73V671.449h627.73v165.879c-11.268,0.566-21.968,1.7-32.665,1.7
		c-114.58,0.142-229.156,0.425-343.732-0.355c-20.69-0.07-29.62,4.606-28.486,27.423c1.771,39.963,0.497,80.139,0.497,123.576
		h32.027c105.437,0,210.873,0.851,316.239-0.566c24.869-0.355,31.745,7.369,30.537,31.177c-1.77,35.641-1.84,71.495,0,107.208
		c1.277,24.73-6.021,33.232-31.953,32.808c-103.597-1.417-207.189-0.567-310.785-0.567H1017.408z"/>
</g>
</svg>
