<?xml version="1.0" encoding="utf-8"?>
<!-- Generator: Adobe Illustrator 16.0.3, SVG Export Plug-In . SVG Version: 6.00 Build 0)  -->
<!DOCTYPE svg PUBLIC "-//W3C//DTD SVG 1.1//EN" "http://www.w3.org/Graphics/SVG/1.1/DTD/svg11.dtd">
<svg version="1.1" id="Layer_1" xmlns="http://www.w3.org/2000/svg" xmlns:xlink="http://www.w3.org/1999/xlink" x="0px" y="0px"
	 width="2208px" height="2208px" viewBox="0 0 2208 2208" enable-background="new 0 0 2208 2208" xml:space="preserve">
<g>
	<polygon fill="#57C0D9" points="1696.351,309.024 1691.025,309.024 495.546,309.024 495.546,1480.135 495.546,1509.83 
		837.275,1509.83 1093.285,1862.395 1309.877,1509.83 1696.351,1509.83 	"/>
	<polygon fill="#FFFFFF" points="1319.971,779.406 1319.083,779.591 1319.971,785.545 	"/>
	<path fill="#FFFFFF" d="M1319.971,790.87l-17.306-9.06c-1.774-0.924-3.736-1.369-5.696-1.405l-103.023-0.703
		c-3.328,0-6.436-1.295-8.766-3.662l-49.035-49.664l0.48-61.053c0-4.326-2.256-8.431-5.99-10.724l-42.009-25.591
		c-1.922-1.146-4.142-1.812-6.397-1.812l-43.229-0.259c-2.885-0.037-5.73,0.999-7.986,2.848l-43.931,36.462
		c-2.851,2.293-4.513,5.769-4.513,9.467l-0.999,180.536c-0.037,6.878,5.512,12.462,12.351,12.499l128.726,0.887
		c6.879,0.074,12.501-5.473,12.501-12.314l0.368-44.117l24.925,25.294v2.515l134.162,0.85l25.368,0.147V790.87z"/>
	<path fill="#FFFFFF" d="M1152.527,555.753c0,1.922-0.481,3.808-1.331,5.546l-11.649,22.854c-1.627,3.254-4.659,5.62-8.173,6.435
		l-37.607,8.986c-1.961,0.481-4.031,0.481-5.954-0.037l-37.425-9.467c-3.587-0.889-6.545-3.292-8.134-6.545l-11.353-23.039
		c-0.852-1.701-1.333-3.624-1.295-5.547l0.149-27.809l0.221-34.392c0.074-4.179,2.183-8.061,5.66-10.353l22.149-14.46
		c2.07-1.368,4.437-2.033,6.877-2.033l52.587,0.369c3.29,0,6.432,1.332,8.726,3.662l23.335,23.63c2.33,2.366,3.587,5.472,3.587,8.8
		l-0.187,25.59L1152.527,555.753z"/>
	<path fill="#FFFFFF" d="M889.602,792.424l0.961-145.258c0-4.696,2.7-8.986,6.916-11.057l15.901-7.84
		c4.807-2.329,10.613-1.368,14.348,2.404l20.598,20.931c2.293,2.33,3.624,5.51,3.624,8.802l-1.109,164.966
		c-0.074,6.841-5.66,12.389-12.499,12.352l-16.901-0.111c-0.924,0-1.849-0.147-2.772-0.37l-19.675-4.585
		c-5.656-1.405-9.614-6.435-9.577-12.204L889.602,792.424z"/>
	<path fill="#FFFFFF" d="M1003.87,919.042c0.073-1.146,0.591-2.146,0.886-3.254v-9.171c0-5.547,4.476-10.095,10.059-10.095h94.299
		c5.62,0,10.133,4.548,10.133,10.095v15.753l43.561,400.306c1.406,12.684-7.766,24.074-20.485,25.479l-19.081,2.108
		c-12.722,1.368-24.111-7.803-25.518-20.487l-33.947-312.219l-17.75,310.111c-0.776,12.722-11.687,22.483-24.406,21.744
		l-19.23-1.109c-12.72-0.703-22.483-11.648-21.745-24.37L1003.87,919.042z"/>
	<rect x="1311.393" y="774.415" fill="#FFFFFF" width="33.429" height="564.383"/>
</g>
</svg>
