<?xml version="1.0" encoding="utf-8"?>
<!-- Generator: Adobe Illustrator 16.0.3, SVG Export Plug-In . SVG Version: 6.00 Build 0)  -->
<!DOCTYPE svg PUBLIC "-//W3C//DTD SVG 1.1//EN" "http://www.w3.org/Graphics/SVG/1.1/DTD/svg11.dtd">
<svg version="1.1" id="Layer_1" xmlns="http://www.w3.org/2000/svg" xmlns:xlink="http://www.w3.org/1999/xlink" x="0px" y="0px"
	 width="2208px" height="2208px" viewBox="0 0 2208 2208" enable-background="new 0 0 2208 2208" xml:space="preserve">
<path fill="#D83559" d="M342.24,1248.256c0,97.152,34.592,181.056,103.04,250.976c68.448,70.656,151.616,107.456,248.768,110.4
	c8.832,0,13.248-4.416,13.248-12.512v-97.889c0-8.832-4.416-13.248-13.248-13.248c-61.824-2.943-115.552-27.968-159.712-75.071
	c-44.16-47.104-66.976-100.832-66.976-163.393c0-61.823,20.607-115.552,62.56-161.184s92.736-71.393,154.561-76.544l39.008-5.152
	c8.832,0,13.983-4.416,13.983-13.248l5.152-36.8c7.36-80.224,40.479-147.936,100.096-202.4
	c59.616-54.464,129.536-81.695,210.496-81.695c79.488,0,149.408,27.231,209.024,80.96c59.615,53.728,94.207,119.968,103.039,199.456
	l5.152,42.688c0,8.832,4.416,13.248,13.984,13.248h117.76c66.24,0,122.912,23.553,170.752,71.393
	c47.104,47.104,71.393,103.775,71.393,169.279c0,61.824-22.08,116.288-66.24,163.393c-44.16,46.367-97.889,71.392-160.448,75.071
	c-9.568,0-14.72,4.416-14.72,13.248v97.889c0,8.096,5.151,12.512,14.72,12.512c97.888-2.944,181.056-39.744,248.768-110.4
	c67.712-70.655,101.568-153.823,101.568-251.712c0-65.504-16.192-126.592-49.313-182.527
	c-32.384-55.937-77.279-100.097-133.216-132.48c-55.936-32.384-117.023-48.576-182.527-48.576h-22.816
	c-24.288-98.624-75.809-178.848-155.296-242.144c-78.752-62.56-169.28-94.208-270.849-94.208c-103.775,0-195.775,32.384-276,96.416
	c-80.224,64.032-131.743,146.464-154.56,246.56c-83.168,21.345-150.144,64.769-202.399,130.272
	C368.735,1086.336,342.24,1162.88,342.24,1248.256z M739.68,1764.928c0,12.512,3.681,25.024,11.776,37.536
	s19.872,20.608,34.592,25.76c16.928,5.152,32.384,4.416,47.104-2.943c13.983-6.624,24.288-20.608,28.704-41.217l10.304-44.896
	c3.68-16.928,1.472-32.384-6.624-46.368c-8.096-13.983-20.608-24.288-38.272-29.439c-16.191-5.152-32.384-2.944-47.104,5.888
	s-25.024,22.08-29.44,39.008l-10.304,43.424C740.416,1753.888,739.68,1758.304,739.68,1764.928z M795.616,1551.488
	c0,15.456,5.888,29.439,18.399,41.951c11.776,12.513,25.024,18.4,41.217,18.4c17.664,0,32.384-5.888,44.16-17.664
	c11.775-11.775,17.663-25.76,17.663-43.424c0-16.928-5.888-31.648-17.663-43.424c-11.776-11.776-26.496-17.664-44.16-17.664
	c-16.929,0-30.912,5.888-42.688,16.928C801.504,1519.84,795.616,1534.56,795.616,1551.488z M840.512,1384.416
	c-0.735,11.776,2.208,22.815,10.305,33.12c7.359,11.04,19.136,18.399,35.327,23.552c15.456,4.416,30.177,2.944,45.633-5.152
	c15.456-8.096,25.023-20.607,30.176-37.535l20.607-66.24c5.152-17.664,3.681-33.856-5.151-47.84
	c-8.832-13.984-22.08-23.553-39.744-28.704c-16.192-5.152-31.648-3.68-46.368,5.151c-14.72,8.097-25.024,20.608-30.176,36.801
	l-17.664,67.712c0,1.472-0.736,4.416-1.472,8.832C841.248,1377.792,840.512,1381.472,840.512,1384.416z M926.624,1994.56
	c0,13.248,3.68,25.024,11.04,36.801c7.36,11.775,19.136,19.872,35.328,24.288c5.888,1.472,12.512,2.208,18.399,2.208
	c31.648,0,50.784-14.721,58.145-44.896l10.304-43.424c4.416-19.136,2.208-35.328-5.888-50.048
	c-8.832-14.721-21.345-23.553-38.272-27.232c-15.456-5.152-30.912-3.68-46.368,5.152s-25.023,21.344-30.176,37.536l-10.304,43.424
	C927.36,1984.992,926.624,1990.144,926.624,1994.56z M983.296,1781.12c0,16.191,5.888,30.176,18.4,42.688
	c11.775,11.776,25.76,17.664,41.952,17.664c17.663,0,31.647-5.888,43.424-16.928c11.775-11.776,16.928-25.76,16.928-43.424
	c0-16.928-5.888-30.912-16.928-42.688c-11.776-11.775-25.761-16.928-43.424-16.928c-17.664,0-31.648,5.888-43.425,16.928
	C988.448,1749.472,983.296,1764.192,983.296,1781.12z M1029.664,1614.048c-0.736,11.04,2.208,22.816,9.568,34.592
	c7.359,11.776,18.399,19.137,33.119,22.08c16.929,4.416,32.385,2.944,47.104-4.416c14.72-7.359,24.288-21.344,30.176-41.216
	l19.872-66.24c5.152-16.191,3.68-31.647-5.152-46.367c-8.832-14.721-21.344-24.288-39.008-29.44
	c-16.191-5.152-31.647-2.944-47.104,5.888s-25.024,22.08-30.176,39.009l-16.929,66.239
	C1030.4,1600.063,1029.664,1606.688,1029.664,1614.048z M1232.8,1772.288c0,11.775,3.68,23.552,11.04,35.328
	c7.36,11.775,19.137,19.872,33.855,24.288c2.209,0,5.889,0.735,10.305,1.472s7.359,1.472,10.304,1.472
	c30.176,0,48.576-16.191,55.937-48.575l10.304-44.16c5.151-15.456,3.68-30.912-5.152-46.368
	c-8.096-15.456-20.608-25.024-37.536-30.176c-18.399-4.416-35.328-2.944-50.048,5.888s-25.024,21.344-30.176,39.008l-6.624,43.424
	c0,1.473-0.736,5.152-1.472,8.832C1232.8,1766.4,1232.8,1769.344,1232.8,1772.288z M1287.264,1554.432
	c0,16.192,5.889,30.912,18.4,41.952c11.04,11.776,25.023,17.664,41.952,17.664c17.664,0,31.647-5.888,43.424-16.928
	s16.928-25.76,16.928-42.688c0-17.664-5.888-31.647-16.928-43.424c-11.04-11.775-25.76-16.928-43.424-16.928
	s-31.648,5.888-43.425,16.928C1293.152,1522.784,1287.264,1536.768,1287.264,1554.432z M1332.16,1384.416
	c0,12.512,3.68,24.288,11.775,35.328c8.097,11.04,19.873,19.136,36.064,23.552c1.472,0,4.416,0.736,8.832,1.472
	c4.416,0.736,8.096,1.473,10.304,1.473c7.36,0,16.192-2.208,26.496-6.624c15.456-8.097,25.761-21.345,30.177-38.272l17.663-66.24
	c4.416-16.928,2.944-32.384-5.888-46.367c-8.096-14.721-20.607-24.288-37.536-29.44c-16.928-5.151-32.384-3.68-47.104,4.416
	c-13.984,8.096-24.288,19.872-28.704,37.536l-20.608,66.976c0,1.473-0.735,4.416-1.472,8.832
	C1332.16,1379.264,1332.16,1382.208,1332.16,1384.416z"/>
</svg>
