<?xml version="1.0" encoding="utf-8"?>
<!-- Generator: Adobe Illustrator 16.0.3, SVG Export Plug-In . SVG Version: 6.00 Build 0)  -->
<!DOCTYPE svg PUBLIC "-//W3C//DTD SVG 1.1//EN" "http://www.w3.org/Graphics/SVG/1.1/DTD/svg11.dtd">
<svg version="1.1" id="Layer_1" xmlns="http://www.w3.org/2000/svg" xmlns:xlink="http://www.w3.org/1999/xlink" x="0px" y="0px"
	 width="2208px" height="2208px" viewBox="0 0 2208 2208" enable-background="new 0 0 2208 2208" xml:space="preserve">
<g>
	<polygon fill="#57C0D9" points="1712.454,316.909 1707.058,316.909 495.546,316.909 495.546,1503.742 495.546,1533.816 
		841.858,1533.816 1101.302,1891.092 1320.797,1533.816 1712.454,1533.816 	"/>
	<path fill="#FFFFFF" d="M972.761,935.462l43.059,6.84c2.361,0.337,10.381,1.611,12.405,1.948l23.984,3.842
		c2.436,0.431,4.647,1.761,6.071,3.766l27.657,38.02l108.004,148.666v0.037l-32.641,206.117c-0.787,5.059-5.584,8.563-10.682,7.756
		l-43.059-6.82c-5.097-0.824-8.582-5.621-7.758-10.68l26.607-168.078c0.375-2.455-0.225-4.947-1.686-6.953l-110.029-151.007
		l-59.849,375.843c-0.825,5.115-5.622,8.563-10.681,7.758l-43.097-6.82c-5.06-0.824-8.544-5.584-7.758-10.682l68.73-431.793
		C962.904,938.124,967.664,934.657,972.761,935.462"/>
	<path fill="#FFFFFF" d="M1136.866,898.399l0.375-2.492l-21.137-29.118l-7.008,44.128c-1.124,6.857-7.57,11.542-14.465,10.437
		l-128.804-20.405c-6.858-1.124-11.58-7.57-10.493-14.429l28.444-180.744c0.6-3.654,2.773-6.914,5.958-8.845l49.581-29.812
		c2.548-1.537,5.509-2.117,8.432-1.649l43.247,6.84c2.286,0.337,4.385,1.293,6.146,2.792l38.188,32.041
		c3.41,2.849,5.059,7.289,4.347,11.637l-9.743,61.085l41.598,57.226c1.949,2.717,4.871,4.516,8.17,5.059l103.17,16.303
		c1.986,0.318,3.86,1.124,5.434,2.305l16.865,12.329v-12.086h31.104v529.457h-31.104V925.082l-34.028-5.415L1136.866,898.399z"/>
	<path fill="#FFFFFF" d="M1172.281,611.392c-0.301,1.93-1.05,3.767-2.174,5.378l-15.104,21.136c-2.211,2.998-5.508,4.91-9.219,5.229
		l-39.087,3.26c-1.948,0.188-4.01-0.149-5.884-0.918l-36.089-15.196c-3.41-1.424-5.996-4.31-7.12-7.795l-7.908-24.79
		c-0.637-1.874-0.712-3.879-0.412-5.79l4.347-27.825l5.509-34.422c0.637-4.179,3.335-7.757,7.158-9.519l24.434-11.13
		c2.249-1.031,4.722-1.387,7.195-0.993l52.616,8.356c3.298,0.506,6.258,2.343,8.207,5.022l19.75,27.207
		c1.986,2.698,2.773,6.071,2.285,9.369l-4.084,25.596L1172.281,611.392z"/>
	<path fill="#FFFFFF" d="M872.851,808.57l23.047-145.387c0.787-4.684,4.085-8.601,8.657-10.024l17.089-5.434
		c5.172-1.611,10.831,0.225,14.016,4.591l17.501,24.097c1.949,2.698,2.736,6.071,2.211,9.369L929.251,850.88
		c-1.125,6.857-7.57,11.58-14.428,10.455l-16.939-2.642c-0.899-0.149-1.836-0.412-2.698-0.769l-19-7.626
		c-5.434-2.192-8.657-7.87-7.758-13.66L872.851,808.57z"/>
</g>
</svg>
