<?xml version="1.0" encoding="utf-8"?>
<!-- Generator: Adobe Illustrator 21.1.0, SVG Export Plug-In . SVG Version: 6.00 Build 0)  -->
<svg version="1.1" id="Capa_1" xmlns="http://www.w3.org/2000/svg" xmlns:xlink="http://www.w3.org/1999/xlink" x="0px" y="0px"
	 viewBox="0 0 595.3 841.9" style="enable-background:new 0 0 595.3 841.9;" xml:space="preserve">
<style type="text/css">
	.st0{fill:#3F2D1E;}
	.st1{fill-rule:evenodd;clip-rule:evenodd;fill:#3F2D1E;}
</style>
<g>
	<path class="st0" d="M170.7,459.5c3.3-2.9,5.9-3.5,8.3-4.6c2.2-1,4.1-2.5,7.5-4.1c1.6-0.8,3.3-2.2,4.9-2.4c2.6-0.9,5.1-2.7,8.5-1.3
		c6,1.2,16.7,4.7,20.8,5.6c1.1,0.3,5,1.7,6.1,1.8c4.3,0.5,5.8,2.3,9,4.9c4.9,3.1,8,4.4,13.1-0.1c3.6-1.7,8.5-6.1,13.9-5.6l2.9-1.8
		l22-12.4c10.1-4,10.5-5.6,17.3-1.3c5.9,2,16.1,6.1,21.4,9.2c2.4,1.4,2.6,1.3,5.5,1.6c4.8,0.5,10.9,0.4,13.6,2.5
		c6.1,2.2,20.4,8.7,26,8.4c4.4-0.2,6.5,1.1,13.2-3.5c6.7-2.7,14.6-7.1,20-8.5c1-0.3,1.7-0.9,3.2-0.1l6.2,2.9c2.6,0.9,2,0.3,3.4,0.7
		c6.9,1.8,7.7,4.3,9.1,5.4c0.7,0.5,0.1-0.5,2.8,1.8c3.1,1,10.7,4.6,12.5,7.1l3.9,2.4c0.9,0.3,1.2,3.2,0.2,4.4
		c-0.9,1-2.4,1.3-3.4,0.8c-1.8-1.1-3.7-2.3-5.1-3.5c-2-1.9-1.7-1.8-4.3-3.1c-3.4-1.7-9-4.6-9.5-4.8c-0.9-0.4-0.9-2.9-1.7-3.4
		c-2.6-1.4-10.4-4.9-13.9-5.9c-0.8-0.2-1.1-0.4-2-0.2c-0.6,0.1-1.5,0.4-2.2,0.6c-1.8,0.6-2.4,2.9-2.6,5.1c-0.1,1.2-0.4,2.7,0.2,3
		c1.2,0.6,5.4,2.8,5.2,4.6c-0.3,2.2-3.5,4.7-4.1,5.3c-4.5,4.4-3.4,2.4-10.6,4.2c-8.4,2.1-8.1,3.5-13.1,5.6c-1.7,0.7-3.1-0.9-8-0.8
		c-1.4,0-2.8-0.5-4-1.4c-1.1-0.8-2-2.6-2.5-3.6c-2-4-3.5-5-9.2-8.6c-2.3-1.4-4.7-4.3-8.8-6.3c-2.2-1.1-3.4-2.8-5.8-3.2
		c-2.6-0.4-5.6,1.3-9.3,1.3c-6.3-1.6-12.8-8.9-18.7-11.6c-4.5-1.3-9.5-4.1-12.1-5c-1.7-0.6-2.9,0.6-4.4,1.5c-6.8,4.3-4,5.8-4.3,13.4
		c0,1.4-0.2,3.3,1.3,3.4c2.8,0.2,5.7-0.2,5.8,2.6c0.2,5.5-0.9,6.7-4,10.6c-2.5,3.2-4.2,4.2-8.3,4.5c-10.1,0.8-20,3.9-25.8,2.5
		c-6.5-1.6-14.2-4-15-6.4c-0.8-2.4-1.2-4.5-4.6-6.2c-1.9-0.9-2.6-0.4-5.5-1.7c-3.1-1.3-4-2.2-6.3-4.3c-1.9-1.7-11.3-3.7-13.9-4.3
		c-7.8-1.8-14.1-4.1-17.8-4.9c-3.9-0.8-3,4.3-4.7,5.6c-4.9,3.7-2.3,3.7-5.6,8.2c-1.7,2.4-1.7,6.1-4,7.8c-1.4,1-6.8-1.7-10.6-2.3
		c-4.8-0.8-8.1,2.3-11.8,3.9c-0.7,0.1-3.6-0.5-5.2-1.7c-1.6-1.2-1.1-4.3,0.1-5.1c2.8-1.7,5.6-3.5,8.3-5.4
		C166.2,461.9,168.7,460.2,170.7,459.5"/>
	<path class="st1" d="M375.9,504.5c-2.8,1.8-9,4.6-12,6.1c-5.3,2.6-11.5,3.4-18.1,6.1c-7.5,3-14.1,3.9-19.5,5
		c-9.3,1.9-16.6,2.8-28.5,2.9c-11.4,0.1-18.1-1.4-25.8-2.8c-6.1-1.1-13.1-1.6-21.9-5.5c-2.9-1.3-10.8-3.7-13.4-4.9
		c-5.6-2.7-9.9-3.2-15.1-6.6c-2.6-1.7-4.3-3.7-3.7-4.7c0.6-1.1,5.4-1.4,7-1.3c4,0.2,7.3,2.2,9.2,3.2c3.1,1.7,4.1,2.1,7.3,3.6
		c10.2,5,7.7,4.3,29.9,7.7c10,1.5,18.4,0.5,26.4,0.5c2.2,0,5.7,0.9,7.9,0.9c14-0.3,23.2,0,35.6-5.5c3.6-1.6,6.7-2,10.5-2.8
		c1.9-0.4,4.5-1.2,8-2.6c4.1-1.7,6.6-3.1,9.1-4.3c2.9-1.3,6.5-0.7,8.4-0.1C378.9,500,380.2,501.8,375.9,504.5"/>
	<path class="st1" d="M150.6,421.9c-0.6-2.4-1.9-4-2.3-5.3c-1.2-4-1-4.4-2.3-9.1c-2.6-10.2-3.4-19.1-3.4-36.5
		c0-39.8,12.6-75.1,36.5-102.4c3.3-3.8,6.8-6.3,10.6-9.8c9.2-8.5,12.1-15.7,26.5-23.5c7.5-4.1,15.5-6.9,21.9-9.6
		c2.5,0.4,0.9,5.7-0.3,6.8c-1.8,1.6-6.9,5.6-11.6,8.4c-2.1,1.2-5.3,1.1-6.3,2.7c-5.5,8.9-16.1,13.1-24.7,19.8
		c-9.8,7.6-16.7,19.9-22.3,28.5c-12,18.2-16.6,34.8-19.3,59.1c-0.6,5.5,0.2,13.9,0.1,20c0,3.8-1.3,7.5-0.9,11.2
		c1.4,14.7-4.2,6.5,0.9,19.8c1.5,3.8,0.4,6.2,1.4,8.8c2.5,6.7,3.7,14.4,0.8,14.2C154.8,424.8,151.5,425.6,150.6,421.9"/>
	<path class="st1" d="M360.7,226.4c6.5,3,10.2,4.5,17,8.7c25.4,15.7,48,38.7,60.3,62.8c7.5,14.6,20.7,57.6,17.9,73.1
		c-4.2,23.8-3.6,28.2-9.9,50.1c-2.2,7.7-10.6,4.4-10.2,1c0.4-3.5,1.7-6.8,2.8-9.6c2-5.1,4-18.9,5.4-24.1c3.3-11.8,1.3-3.2,1.3-16.4
		c0-4.6,1-13.2,0.6-17.7c-0.9-10.7-4.2-16.6-7.1-26.5c-4.2-14.6-11.5-29-19.1-41.5c-4.3-7.1-9.7-13.1-15-18.8
		c-5.8-6.3-12.2-11.9-19.5-17c-3.7-2.6-16.9-8.9-21-11.3c-1.6-0.9-7.7-7.3-8.4-8c-0.1-0.1-1.2-1.3-1.5-2.4
		C353.8,226.8,359.1,225.7,360.7,226.4"/>
	<path class="st0" d="M377,400.1l-5.2-12.3c-1.3-2.9-1.8-4.4-2.4-4.4c-0.3,0-0.7,1-1.6,2.9l-0.8,1.7l-4.7,10.7l-0.4,1
		c-0.2,0.4-0.3,0.8-0.3,1c0,0.9,1,1.4,2.9,1.4l11.4-0.1c1,0,1.5-0.3,1.5-0.9c0-0.1-0.1-0.4-0.2-0.7L377,400.1z M375.5,374.9
		c1.1,2.2,1.9,3.8,2.8,6.1l1.5,4l1.2,2.5c0.6,1.2,1.2,1.8,1.9,3.6l2.7,6.7l1.7,3.7l1.2,3.3c0.5,1,1.1,2,1.5,3.1
		c0.3,0.7,0.6,1.5,1,2.2l1.4,3.3l1.5,3.4c0.9,2.1,1.9,3.7,3.1,4.8c1.2,1,2.8,1.7,4.8,2.1c0.5,0.1,0.7,0.5,0.7,1.1
		c0,0.7-0.3,1.1-0.9,1.1c-0.4,0-0.9-0.1-1.5-0.2c-2.1-0.5-5.4-0.7-10-0.7c-4.6,0-7.7,0.2-9.4,0.6c-0.4,0.1-0.7,0.2-1,0.2
		c-0.8,0-1.1-0.4-1.1-1.1c0-0.4,0.3-0.7,0.9-0.8c1.3-0.4,2.3-1,3.2-2c0.8-1,1.1-2,1.1-3.1c0-1.5-1.1-4.8-3.4-9.9
		c-0.7-1.5-1.5-2.3-2.4-2.5c-0.9-0.2-3.7,0-9-0.3c-3.2-0.2-5.3,0.2-8.3,0.4c-1.1,0.1-2.2,2.2-3.4,5.3l-1.2,3.1
		c-0.4,0.9-0.6,1.8-0.6,2.7c0,3.4,1.6,5.5,6.3,6c1,0.1,1.5,0.5,1.5,1.2c-0.1,0.7-0.5,1.1-1.5,1.1c-0.5,0-1.2-0.1-2.1-0.3
		c-1.8-0.4-3.3-0.6-4.7-0.6c-1.3,0-3.3,0.1-6.1,0.4c-2.1,0.2-3.4,0.3-3.9,0.3c-0.8,0-1.1-0.3-1.1-1c0-0.5,0.4-1,1.1-1.2
		c1.5-0.5,2.6-1.3,3.5-2.5c0.5-0.6,0.7-1.5,1.4-2.8c0.6-1.2,1.5-3.4,2.3-5.2l4.4-10.2c1.3-2.9,2.5-5.7,4.1-8.6l1-2.5l1.6-3.7
		c0.8-2,1.5-3.2,1.8-3.9l3.7-7.7c0.9-1.7,1.8-3.4,2.6-5.2c0.4-1,0.8-1.5,1.1-1.5c0.4,0,1.2,1.1,2.2,3.4L375.5,374.9z"/>
	<path class="st0" d="M325.5,380.1l0.1,9.1l0.1,4.9l-0.1,9.9l0.1,6.3c0,4.5,0.5,7.7,1.8,9.6c1.3,1.9,3.6,2.9,6.9,3.1
		c1,0.1,1.4,0.6,1.4,1.4c0,0.6-0.4,0.9-1.2,0.9c-0.2,0-0.5,0-1,0l-3-0.1l-5-0.3c-0.4,0-0.9,0-1.6,0c-1.6,0-2.9,0-4.2,0.1l-8.9,0.5
		c-0.9,0.1-1.6,0.2-1.9,0.2c-0.8,0-1.2-0.4-1.2-1.1c0-0.6,0.2-1,0.4-1.1c0.2-0.2,0.8-0.3,1.6-0.3c2.1-0.1,3.7-0.9,4.8-2.3
		c1.1-1.4,1.7-3.3,1.7-5.6l0-1.9l-0.3-7.7l0.2-4.9l0-11.6l0-11c0-2.1-2.3-3.3-4.5-3.3c-5.3,0-7.6,0.1-9.6,0.9
		c-1.4,0.6-2.4,1.3-2.8,2c-0.5,0.7-0.5,0.2-1.3,3.1l-0.3,1.1c-0.3,1.1-0.8,1.6-1.4,1.6c-0.9,0-1.3-0.4-1.3-1.2c0-0.8,0-1,0.2-2.3
		l0-1.9l0.5-3.6l0.3-2.4c0.1-1,0.7-1.7,1.7-1.7c0.3,0,0.7,0,1.4,0.1c1,0.1,2.5,0.2,4.4,0.1l8.1-0.1l9.9,0c2.3,0,4.7,0.3,7.1,0.3
		c2,0,4,0,6.1,0c2.2,0,4.4,0.1,6.7,0c1.4-0.1,2.3-0.1,2.7-0.1c1.5,0,2.2,0.7,2.3,1.9l0.3,2.9c0.1,0.4,0,1.5,0.3,3.2
		c0.2,1.4,0.3,2.5,0.3,3.4c0,0.9-0.4,1.3-1.1,1.3c-0.6,0-1-0.5-1.3-1.5c-0.6-2.5-1.6-4.3-3.2-5.4c-1.6-1.1-3.9-1.4-6.9-1.4
		c-4.1,0-6.6,0.1-7.6,0.7C326,376.5,325.5,377.6,325.5,380.1"/>
	<path class="st0" d="M271.2,369.2c1.5,0,3,0.4,4.4,0.7c1.1,0.3,2.1,0.5,3.1,0.9l2.7,1.1c1.2,0.5,2.1,0.7,2.6,0.7
		c0.4,0,0.8-0.1,1.2-0.3l1.5-0.8c0.2-0.1,0.4-0.2,0.6-0.2c0.6,0,0.8,0.4,0.8,1.3l-0.1,3.3c0,0.5,0,1,0.1,1.5l0.5,3.9l0.4,3.7
		c0.1,0.3,0.1,0.6,0.1,0.8c0,1.2-0.3,1.7-1,1.7c-0.5,0-0.8-0.5-1.1-1.5c-0.4-2-1.2-3.6-2.3-5.3c-0.9-1.4-1.8-2.8-3.3-4.1
		c-0.8-0.7-1.6-1.3-2.5-1.8c-1.1-0.7-2.2-1-3.3-1.3c-1.4-0.5-2.7-0.9-4.1-0.9c-2.4,0-4.4,0.8-6.2,2.4c-1.8,1.6-2.7,3.5-2.7,5.7
		c0,0.5-0.1,0.7,0.1,1.2c0.3,1.4,0.9,2.7,2,3.8c0.6,0.5,1.8,1,3.7,1.9c1.5,0.7,3.5,1.8,5.8,2.8c6.4,2.6,10.4,4.9,12.5,7.4
		c1.2,1.4,2.2,3.1,2.8,4.8c0.7,1.9,0.9,4.1,0.9,6.3c0,2-0.2,3.7-0.8,5.5c-0.5,1.3-1.2,2.7-2,3.9c-0.6,0.9-1.4,1.9-2.3,2.8
		c-0.8,0.8-1.6,1.8-2.5,2.4c-2.8,2-5.9,2.8-9.4,2.8c-1.8,0-4.8-0.6-8.8-1.9c-1.9-0.6-3.3-1-4.1-1.2c-1.2-0.2-1.9-0.5-2.1-0.7
		c-0.2-0.2-0.4-0.9-0.5-2.1c-0.1-1.3-0.5-3.1-1.2-5.4c-1-3.6-1.5-6-1.5-7c0-1.3,0.4-1.9,1.2-1.9c0.4,0,0.6,0.3,0.8,1
		c1.1,4,3,6.7,5.6,9.6c0.4,0.4,0.7,0.9,1.1,1.3c3.3,3.1,6.6,4.3,10,4.3c2.7,0,4.9-0.6,7.1-2.7c1.1-1.1,1.9-2.3,2.5-3.6
		c0.5-1.1,1-2.2,1-3.5c0-2.1-0.5-3.2-1.6-4.6c-1.1-1.4-3.2-2.4-5.9-3.8l-6.1-2.8c-2.2-0.5-4.2-1.7-5.7-2.6c-2.8-1.6-4.6-3.2-5.9-4.7
		c-1.5-1.6-2.4-3.7-2.8-6.1c-0.2-1-0.2-2-0.2-3c0-2,0.4-3.9,1-5.6c0.4-1.2,0.7-2.3,1.4-3.3c0.5-0.8,1.3-1.5,2-2.2
		c2.3-2.3,4.5-3.7,7.6-4.2C269.1,369.5,270.3,369.2,271.2,369.2"/>
	<path class="st0" d="M228.4,400.1l-5.2-12.3c-1.3-2.9-1.9-4.4-2.4-4.4c-0.3,0-0.7,1-1.6,2.9l-0.8,1.7l-4.7,10.7l-0.4,1
		c-0.2,0.4-0.3,0.8-0.3,1c0,0.9,1,1.4,2.9,1.4l11.4-0.1c1,0,1.5-0.3,1.5-0.9c0-0.1-0.1-0.4-0.2-0.7L228.4,400.1z M226.8,374.9
		c1.1,2.2,1.9,3.8,2.8,6.1l1.5,4l1.2,2.5c0.6,1.2,1.2,1.8,1.9,3.6l2.7,6.7l1.7,3.7l1.2,3.3c0.5,1,1.1,2,1.5,3.1
		c0.3,0.7,0.6,1.5,1,2.2l1.4,3.3l1.5,3.4c0.9,2.1,1.9,3.7,3.1,4.8c1.2,1,2.8,1.7,4.8,2.1c0.5,0.1,0.7,0.5,0.7,1.1
		c0,0.7-0.3,1.1-0.9,1.1c-0.4,0-0.9-0.1-1.5-0.2c-2.1-0.5-5.4-0.7-10-0.7c-4.6,0-7.7,0.2-9.4,0.6c-0.4,0.1-0.7,0.2-1,0.2
		c-0.8,0-1.1-0.4-1.1-1.1c0-0.4,0.3-0.7,0.9-0.8c1.3-0.4,2.3-1,3.2-2c0.8-1,1.1-2,1.1-3.1c0-1.5-1.1-4.8-3.4-9.9
		c-0.7-1.5-1.5-2.3-2.4-2.5c-0.9-0.2-3.7,0-9-0.3c-3.2-0.2-5.3,0.2-8.3,0.4c-1.1,0.1-2.2,2.2-3.4,5.3l-1.2,3.1
		c-0.4,0.9-0.6,1.8-0.6,2.7c0,3.4,1.6,5.5,6.3,6c1,0.1,1.5,0.5,1.5,1.2c-0.1,0.7-0.5,1.1-1.5,1.1c-0.5,0-1.2-0.1-2.1-0.3
		c-1.8-0.4-3.3-0.6-4.7-0.6c-1.3,0-3.3,0.1-6.1,0.4c-2.1,0.2-3.4,0.3-3.9,0.3c-0.8,0-1.1-0.3-1.1-1c0-0.5,0.4-1,1.1-1.2
		c1.5-0.5,2.6-1.3,3.5-2.5c0.5-0.6,0.7-1.5,1.4-2.8c0.6-1.2,1.5-3.4,2.3-5.2l4.4-10.2c1.3-2.9,2.5-5.7,4.1-8.6l1-2.5l1.6-3.7
		c0.8-2,1.5-3.2,1.8-3.9l3.7-7.7c0.9-1.7,1.8-3.4,2.6-5.2c0.4-1,0.8-1.5,1.1-1.5c0.4,0,1.2,1.1,2.2,3.4L226.8,374.9z"/>
	<path class="st0" d="M443.1,582.1c-1.2-0.1-2.4,0.3-3.5,1.3c-1.1,0.9-1.7,2-1.7,3.1c0,1.9,0.8,2.8,2.3,2.8c0.9,0,1.7-0.2,2.4-0.7
		c0.4-0.2,0.6-0.6,0.8-1.2c0.1-0.5,0.2-1.5,0.2-2.7l0-1.6v-0.4l-0.1-0.5C443.5,582.1,443.3,582.1,443.1,582.1 M443.6,580.9
		c0.2-0.7,0.2-1.2,0.2-1.7c0-1.4-0.3-2.6-1-3.5c-0.7-0.9-1.6-1.4-2.6-1.4c-1.4,0-2.1,0.6-2.1,1.7c0,0.2,0,0.4,0,0.6l0.1,0.4
		c0,1-1.1,1.4-3.3,1.4c-0.6,0-0.8-0.2-0.8-0.7c0-0.1,0-0.3,0.1-0.5c0-0.2,0.1-0.3,0.1-0.6c0.2-0.9,0.6-1.6,1.3-2.1
		c1.5-1.1,3.3-1.6,5.4-1.6c2.4,0,4.3,0.6,5.5,1.7c0.9,0.9,1.4,2.4,1.4,4.5c0,1.1,0,2.4-0.1,4.1c-0.1,1.9-0.1,3.1-0.1,3.7
		c0,1.5,0.6,2.2,1.7,2.2c0.4,0,0.7-0.1,0.9-0.2c0.2-0.1,0.4-0.2,0.5-0.2c0.2,0,0.3,0.1,0.3,0.3c0,0.3-0.3,0.7-0.8,1l-0.8,0.4
		l-0.7,0.4c-0.5,0.3-1.1,0.4-1.7,0.4c-1.2,0-2.3-0.8-3.1-2.4c-2.6,1.7-4.8,2.5-6.6,2.5c-1.2,0-2.1-0.3-2.8-1c-0.7-0.7-1-1.7-1-2.9
		c0-2.2,1-3.9,2.9-4.9C437.7,582.1,440,581.5,443.6,580.9z M428.6,573.3v13.1c0,1.4,0.1,2.2,0.3,2.5c0.2,0.3,0.8,0.5,1.8,0.5l0.5,0
		c0.2,0,0.3,0,0.4,0c0.2,0.1,0.4,0.2,0.4,0.5c0,0.5-0.5,0.8-1.4,0.8h-1c-0.6,0-1,0-1.4,0c-0.9,0.1-1.9,0.2-3,0.5
		c-0.1,0-0.3,0.1-0.4,0.1c-0.3,0-0.5-0.3-0.5-0.8c0-0.3,0-0.5,0-0.7c0-0.3,0-0.5,0-0.6c0-0.4-0.1-0.6-0.3-0.7
		c-0.1,0-0.2,0.1-0.3,0.3l-0.8,0.8c-1.3,1.3-2.9,2-4.7,2c-2.1,0-3.7-0.6-4.7-1.7c-1.1-1.2-1.6-2.9-1.6-5.1c0-3,0.1-5.6,0.2-7.8
		c0-0.4,0-0.7,0-1c0-1-0.4-1.5-1.3-1.5l-0.9-0.1c-0.4,0-0.6-0.2-0.6-0.6c0-0.3,0.2-0.4,0.7-0.5c0.4-0.1,1.2-0.1,2.4-0.1
		c1.1,0,2.1-0.1,3-0.4c0.4-0.1,0.7-0.2,0.9-0.2c0.2,0,0.4,0.2,0.4,0.5c0,0.4,0,0.8,0,1.2c-0.1,1.5-0.2,4.1-0.2,7.8
		c0,2.9,0.3,4.8,0.8,5.8c0.5,1,1.6,1.4,3.1,1.4c1.2,0,2.2-0.4,2.8-1.1c0.7-0.7,1-1.8,1-3.1v-7.9c0-1.2-0.1-1.9-0.3-2.2
		c-0.2-0.3-0.8-0.5-1.8-0.6c-0.4,0-0.7-0.2-0.7-0.5c0-0.4,0.4-0.7,1.3-0.7c2.5,0,4.2-0.2,5.1-0.5c0.2-0.1,0.3-0.1,0.4-0.1
		c0.2,0,0.3,0.1,0.3,0.4L428.6,573.3z M404.4,567.4v17.2l0,1.9c0,1.9-0.2,3.4-0.6,4.7c-0.4,1.2-1.1,2.5-2.2,3.7
		c-2,2.3-3.7,3.5-5.1,3.5c-0.3,0-0.6,0-0.8-0.1l-1.2-0.4l-1-0.3c-0.3-0.2-0.4-0.5-0.4-0.9c0-0.3,0-0.5,0.1-0.9l0.5-2.7
		c0.1-0.4,0.2-0.6,0.4-0.6c0.4,0,0.9,0.3,1.5,1l0.8,0.9c0.6,0.7,1.2,1,1.6,1c1.1,0,1.6-1.3,1.6-4l0-1.6v-16c0-3.3,0-5.5-0.1-6.5
		c-0.1-1.1-0.3-1.9-0.5-2.4c-0.3-0.5-0.6-0.8-1.1-1c-0.5-0.2-1.4-0.3-2.6-0.5c-0.4,0-0.6-0.2-0.6-0.6c0-0.5,0.3-0.7,1-0.7
		c0.3,0,0.8,0,1.4,0.1c2,0.2,3.1,0.3,3.4,0.3c0.5,0,1.2-0.1,2.2-0.2c2-0.2,3.2-0.4,3.6-0.4c0.6,0,1,0.2,1,0.6c0,0.2-0.2,0.4-0.6,0.6
		c-0.8,0.2-1.3,0.7-1.6,1.3C404.5,564.8,404.4,565.9,404.4,567.4z M380,582v4.3c0,0.9,0.1,1.5,0.1,1.9c0.1,0.3,0.3,0.7,0.7,0.9
		c0.5,0.4,1.2,0.7,1.9,0.7c0.4,0.1,0.7,0.2,0.7,0.5c0,0.4-0.5,0.6-1.5,0.6c-0.2,0-0.5,0-0.9-0.1l-1.4-0.2c-0.6-0.1-1.1-0.1-1.5-0.1
		c-1.3,0-2.4,0.1-3.2,0.3c-0.3,0.1-0.6,0.1-0.8,0.1c-0.3,0-0.5-0.2-0.5-0.5c0-0.2,0.2-0.4,0.5-0.5c0.6-0.2,1-0.5,1.2-1
		c0.2-0.4,0.3-1.2,0.3-2.3v-5c0-1.9-0.4-3.4-1.1-4.6c-0.8-1.1-1.8-1.7-3.1-1.7c-1.2,0-2.1,0.3-2.9,1c-0.7,0.7-1.1,1.5-1.1,2.5v7.1
		c0,1.3,0.2,2.2,0.7,2.8c0.5,0.6,1.3,0.9,2.5,1c0.4,0,0.6,0.2,0.6,0.5c0,0.4-0.2,0.6-0.7,0.6c-0.5,0-1,0-1.7-0.1
		c-1.6-0.2-2.7-0.3-3.3-0.3c-0.8,0-1.8,0.1-2.8,0.2c-0.5,0.1-0.9,0.1-1,0.1c-0.4,0-0.5-0.2-0.5-0.5c0-0.2,0.1-0.4,0.4-0.5
		c0.7-0.3,1.2-0.6,1.4-0.9c0.2-0.3,0.3-0.9,0.3-1.8l0-0.7v-7.5l0-0.8c0-1-0.1-1.7-0.3-2.1c-0.2-0.4-0.6-0.6-1.1-0.6h-1
		c-0.1,0-0.3,0-0.3-0.1c-0.1-0.1-0.1-0.2-0.1-0.3c0-0.3,0.1-0.5,0.3-0.6c0.2-0.1,0.8-0.3,1.9-0.5c1.8-0.4,3.3-1,4.4-1.8
		c0.1-0.1,0.2-0.1,0.3-0.1c0.2,0,0.3,0.1,0.3,0.4l-0.1,1.1l0,1.2l0.1,0.8c0.1,0.2,0.1,0.3,0.3,0.3c0.1,0,0.3-0.2,0.7-0.6
		c1.3-1.6,3-2.4,5.1-2.4c2.3,0,3.9,0.7,4.9,2.1C379.5,576.5,380,578.8,380,582z M351.8,582.1c-1.2-0.1-2.4,0.3-3.5,1.3
		c-1.1,0.9-1.7,2-1.7,3.1c0,1.9,0.8,2.8,2.3,2.8c0.9,0,1.7-0.2,2.4-0.7c0.4-0.2,0.6-0.6,0.8-1.2c0.1-0.5,0.2-1.5,0.2-2.7l0-1.6v-0.4
		l-0.1-0.5C352.2,582.1,352,582.1,351.8,582.1z M352.3,580.9c0.2-0.7,0.2-1.2,0.2-1.7c0-1.4-0.3-2.6-1-3.5c-0.7-0.9-1.6-1.4-2.6-1.4
		c-1.4,0-2.1,0.6-2.1,1.7c0,0.2,0,0.4,0,0.6l0.1,0.4c0,1-1.1,1.4-3.3,1.4c-0.6,0-0.8-0.2-0.8-0.7c0-0.1,0-0.3,0.1-0.5
		c0-0.2,0.1-0.3,0.1-0.6c0.2-0.9,0.6-1.6,1.3-2.1c1.5-1.1,3.3-1.6,5.4-1.6c2.4,0,4.3,0.6,5.5,1.7c0.9,0.9,1.4,2.4,1.4,4.5
		c0,1.1,0,2.4-0.1,4.1c-0.1,1.9-0.1,3.1-0.1,3.7c0,1.5,0.6,2.2,1.7,2.2c0.4,0,0.7-0.1,0.9-0.2c0.2-0.1,0.4-0.2,0.5-0.2
		c0.2,0,0.3,0.1,0.3,0.3c0,0.3-0.3,0.7-0.8,1l-0.8,0.4l-0.7,0.4c-0.5,0.3-1.1,0.4-1.7,0.4c-1.2,0-2.3-0.8-3.1-2.4
		c-2.6,1.7-4.8,2.5-6.6,2.5c-1.2,0-2.1-0.3-2.8-1c-0.7-0.7-1-1.7-1-2.9c0-2.2,1-3.9,2.9-4.9C346.4,582.1,348.7,581.5,352.3,580.9z
		 M329.4,561.5c1.3,0,2.6,0.3,3.9,0.8l1.4,0.6c0.6,0.3,1.1,0.4,1.4,0.4c0.2,0,0.4-0.1,0.6-0.1l0.8-0.4c0.1-0.1,0.2-0.1,0.3-0.1
		c0.3,0,0.4,0.2,0.4,0.7l0,1.7c0,0.3,0,0.5,0,0.8l0.3,2.1l0.2,1.9c0,0.2,0,0.3,0,0.4c0,0.6-0.2,0.9-0.5,0.9c-0.3,0-0.4-0.3-0.6-0.8
		c-0.4-2-1.4-3.7-3.1-5.1c-1.7-1.4-3.4-2.2-5.3-2.2c-1.3,0-2.4,0.4-3.3,1.3c-0.9,0.9-1.4,1.9-1.4,3c0,1.1,0.4,2,1.3,2.8
		c0.5,0.5,2.2,1.3,5,2.5c3.4,1.4,5.6,2.7,6.7,4c1.3,1.6,1.9,3.5,1.9,5.7c0,2.5-0.9,4.6-2.7,6.4c-1.8,1.8-3.9,2.7-6.3,2.7
		c-1,0-2.5-0.3-4.6-1c-1-0.3-1.7-0.5-2.2-0.6c-0.7-0.1-1-0.2-1.1-0.4c-0.1-0.1-0.2-0.5-0.3-1.1c-0.1-0.7-0.3-1.6-0.6-2.9
		c-0.5-1.9-0.8-3.1-0.8-3.7c0-0.7,0.2-1,0.7-1c0.2,0,0.3,0.2,0.4,0.5c0.7,2.4,1.9,4.4,3.6,6.1c1.7,1.6,3.5,2.5,5.3,2.5
		c1.4,0,2.7-0.5,3.8-1.6c1.1-1.1,1.7-2.3,1.7-3.7c0-1.1-0.3-2-0.9-2.7c-0.6-0.7-1.6-1.4-3.1-2l-3.2-1.4c-3-1.4-5.1-2.6-6.2-3.9
		c-1.1-1.2-1.6-2.8-1.6-4.8c0-2.3,0.8-4.3,2.3-5.9C325.3,562.2,327.2,561.5,329.4,561.5z M305.5,582v4.3c0,0.9,0.1,1.5,0.1,1.9
		c0.1,0.3,0.3,0.7,0.7,0.9c0.5,0.4,1.2,0.7,1.9,0.7c0.4,0.1,0.7,0.2,0.7,0.5c0,0.4-0.5,0.6-1.5,0.6c-0.2,0-0.5,0-0.9-0.1l-1.4-0.2
		c-0.6-0.1-1.1-0.1-1.5-0.1c-1.3,0-2.4,0.1-3.2,0.3c-0.3,0.1-0.6,0.1-0.8,0.1c-0.3,0-0.5-0.2-0.5-0.5c0-0.2,0.2-0.4,0.5-0.5
		c0.6-0.2,1-0.5,1.2-1c0.2-0.4,0.3-1.2,0.3-2.3v-5c0-1.9-0.4-3.4-1.1-4.6c-0.8-1.1-1.8-1.7-3.1-1.7c-1.2,0-2.1,0.3-2.9,1
		c-0.7,0.7-1.1,1.5-1.1,2.5v7.1c0,1.3,0.2,2.2,0.7,2.8c0.5,0.6,1.3,0.9,2.5,1c0.4,0,0.6,0.2,0.6,0.5c0,0.4-0.2,0.6-0.7,0.6
		c-0.5,0-1,0-1.7-0.1c-1.6-0.2-2.7-0.3-3.3-0.3c-0.8,0-1.8,0.1-2.8,0.2c-0.5,0.1-0.9,0.1-1,0.1c-0.4,0-0.5-0.2-0.5-0.5
		c0-0.2,0.1-0.4,0.4-0.5c0.7-0.3,1.2-0.6,1.4-0.9c0.2-0.3,0.3-0.9,0.3-1.8l0-0.7v-7.5l0-0.8c0-1-0.1-1.7-0.3-2.1
		c-0.2-0.4-0.6-0.6-1.1-0.6h-1c-0.1,0-0.3,0-0.3-0.1c-0.1-0.1-0.1-0.2-0.1-0.3c0-0.3,0.1-0.5,0.3-0.6c0.2-0.1,0.8-0.3,1.9-0.5
		c1.8-0.4,3.3-1,4.5-1.8c0.1-0.1,0.2-0.1,0.3-0.1c0.2,0,0.3,0.1,0.3,0.4l-0.1,1.1l0,1.2l0.1,0.8c0.1,0.2,0.1,0.3,0.3,0.3
		c0.1,0,0.3-0.2,0.7-0.6c1.3-1.6,3-2.4,5.1-2.4c2.3,0,3.9,0.7,4.9,2.1C305,576.5,305.5,578.8,305.5,582z M274.7,569.7
		c-1.1,0.6-1.9,0.9-2.3,0.9c-0.3,0-0.5-0.1-0.5-0.4c0-0.2,0.1-0.5,0.3-0.8c0.1-0.2,0.3-0.5,0.6-1.1l1-1.9l0.7-1.3
		c0.1-0.3,0.3-0.5,0.5-0.5c0.2-0.1,0.7-0.1,1.4-0.1h1.3l0.5,0.1c0.4,0.1,0.5,0.4,0.5,0.8c0,0.2-0.1,0.4-0.4,0.6l-0.4,0.4
		L274.7,569.7z M273.2,574.2c-1.4,0-2.4,0.6-3.2,1.7c-0.8,1.2-1.2,2.7-1.2,4.7c0,2.7,0.6,5,1.9,6.9c1.2,1.9,2.7,2.9,4.5,2.9
		c1.3,0,2.4-0.5,3.2-1.6c0.8-1.1,1.3-2.5,1.3-4.2c0-2.9-0.6-5.3-1.9-7.3C276.5,575.2,275,574.2,273.2,574.2z M274.3,573
		c2.7,0,4.9,0.8,6.6,2.5c1.7,1.7,2.6,3.8,2.6,6.5c0,2.7-0.9,5-2.8,6.8c-1.9,1.8-4.2,2.7-7,2.7c-2.6,0-4.8-0.8-6.6-2.5
		c-1.8-1.7-2.6-3.8-2.6-6.3c0-2.7,1-4.9,2.9-6.8C269.2,574,271.6,573,274.3,573z M259.6,574v12c0,1.4,0.2,2.4,0.6,3
		c0.4,0.6,1.2,0.9,2.4,1c0.5,0,0.7,0.2,0.7,0.5c0,0.4-0.6,0.5-1.7,0.5c-0.1,0-0.4,0-0.9-0.1l-1.6-0.2c-0.9-0.1-1.5-0.1-1.7-0.1
		c-0.7,0-1.8,0.1-3,0.3c-0.3,0.1-0.6,0.1-0.7,0.1c-0.3,0-0.4-0.1-0.4-0.4c0-0.2,0.1-0.3,0.3-0.4l0.7-0.4c0.3-0.2,0.6-0.5,0.8-1.1
		c0.2-0.6,0.3-1.2,0.3-1.8l0-0.9v-7.1c0-1.1-0.1-1.8-0.3-2.3c-0.2-0.4-0.7-0.6-1.3-0.6h-0.5c-0.3,0-0.4-0.1-0.5-0.2
		c0-0.1-0.1-0.2-0.1-0.3c0-0.4,0.4-0.6,1.3-0.8c2.2-0.5,3.9-1.1,5.1-2.1c0.2-0.1,0.3-0.2,0.4-0.2c0.2,0,0.3,0.1,0.3,0.4l0,0.2
		C259.6,573.2,259.6,573.5,259.6,574z M257.3,562.4c0.3,0,0.8,0.5,1.6,1.4l0.9,1.2c0.2,0.3,0.3,0.5,0.3,0.7c0,0.3-0.4,1-1.2,1.9
		c-0.8,0.9-1.3,1.4-1.6,1.4c-0.2,0-0.4-0.1-0.6-0.3l-1-1.2l-0.9-1.1c-0.2-0.3-0.4-0.5-0.4-0.7c0-0.3,0.4-0.9,1.2-1.9
		C256.6,562.9,257.1,562.4,257.3,562.4z M245.4,573c2.3,0,3.8,0.6,4.7,1.7c0.5,0.7,0.8,1.3,0.8,1.8c0,0.5-0.6,1-1.9,1.7l-0.9,0.5
		c-0.2,0.1-0.3,0.1-0.4,0.1c-0.4,0-0.6-0.3-0.6-0.8c-0.1-1-0.5-1.9-1.2-2.6c-0.7-0.7-1.5-1.1-2.4-1.1c-1.2,0-2.1,0.6-2.9,1.7
		c-0.8,1.1-1.2,2.5-1.2,4.2c0,2.6,0.6,4.7,1.7,6.3c1.2,1.7,2.6,2.5,4.4,2.5c1.6,0,3.2-0.6,4.8-1.7l0.3-0.1c0.2,0,0.3,0.1,0.3,0.4
		c0,0.5-0.5,1.1-1.6,1.9c-1.9,1.4-3.9,2.1-6,2.1c-2.3,0-4.3-0.8-5.8-2.4c-1.5-1.6-2.3-3.6-2.3-6c0-2.9,1-5.3,2.9-7.2
		C240,574,242.5,573,245.4,573z M226.6,582.1c-1.2-0.1-2.4,0.3-3.5,1.3c-1.1,0.9-1.7,2-1.7,3.1c0,1.9,0.8,2.8,2.2,2.8
		c0.9,0,1.7-0.2,2.4-0.7c0.4-0.2,0.6-0.6,0.8-1.2c0.1-0.5,0.2-1.5,0.2-2.7l0-1.6v-0.4l-0.1-0.5C227,582.1,226.8,582.1,226.6,582.1z
		 M227,580.9c0.2-0.7,0.2-1.2,0.2-1.7c0-1.4-0.3-2.6-1-3.5c-0.7-0.9-1.6-1.4-2.6-1.4c-1.4,0-2.1,0.6-2.1,1.7c0,0.2,0,0.4,0,0.6
		l0.1,0.4c0,1-1.1,1.4-3.3,1.4c-0.6,0-0.8-0.2-0.8-0.7c0-0.1,0-0.3,0.1-0.5c0-0.2,0.1-0.3,0.1-0.6c0.2-0.9,0.6-1.6,1.3-2.1
		c1.5-1.1,3.3-1.6,5.4-1.6c2.4,0,4.3,0.6,5.5,1.7c0.9,0.9,1.4,2.4,1.4,4.5c0,1.1,0,2.4-0.1,4.1c-0.1,1.9-0.1,3.1-0.1,3.7
		c0,1.5,0.6,2.2,1.7,2.2c0.4,0,0.7-0.1,0.9-0.2c0.2-0.1,0.4-0.2,0.5-0.2c0.2,0,0.3,0.1,0.3,0.3c0,0.3-0.3,0.7-0.8,1l-0.8,0.4
		l-0.7,0.4c-0.5,0.3-1.1,0.4-1.7,0.4c-1.2,0-2.3-0.8-3.1-2.4c-2.6,1.7-4.8,2.5-6.6,2.5c-1.2,0-2.1-0.3-2.8-1c-0.7-0.7-1-1.7-1-2.9
		c0-2.2,1-3.9,2.9-4.9C221.2,582.1,223.5,581.5,227,580.9z M212.2,574v12c0,1.4,0.2,2.4,0.6,3c0.4,0.6,1.2,0.9,2.4,1
		c0.5,0,0.7,0.2,0.7,0.5c0,0.4-0.6,0.5-1.7,0.5c-0.1,0-0.4,0-0.9-0.1l-1.6-0.2c-0.9-0.1-1.5-0.1-1.7-0.1c-0.7,0-1.8,0.1-3,0.3
		c-0.3,0.1-0.6,0.1-0.7,0.1c-0.3,0-0.4-0.1-0.4-0.4c0-0.2,0.1-0.3,0.3-0.4l0.7-0.4c0.3-0.2,0.6-0.5,0.8-1.1c0.2-0.6,0.3-1.2,0.3-1.8
		l0-0.9v-7.1c0-1.1-0.1-1.8-0.3-2.3c-0.2-0.4-0.7-0.6-1.3-0.6h-0.5c-0.3,0-0.4-0.1-0.5-0.2c0-0.1-0.1-0.2-0.1-0.3
		c0-0.4,0.4-0.6,1.3-0.8c2.2-0.5,3.9-1.1,5.1-2.1c0.2-0.1,0.3-0.2,0.4-0.2c0.2,0,0.3,0.1,0.3,0.4l0,0.2
		C212.2,573.2,212.2,573.5,212.2,574z M209.9,562.4c0.3,0,0.8,0.5,1.6,1.4l0.9,1.2c0.2,0.3,0.3,0.5,0.3,0.7c0,0.3-0.4,1-1.2,1.9
		c-0.8,0.9-1.3,1.4-1.6,1.4c-0.2,0-0.4-0.1-0.6-0.3l-1-1.2l-0.9-1.1c-0.2-0.3-0.4-0.5-0.4-0.7c0-0.3,0.4-0.9,1.2-1.9
		C209.2,562.9,209.7,562.4,209.9,562.4z M198,573c2.3,0,3.8,0.6,4.7,1.7c0.5,0.7,0.8,1.3,0.8,1.8c0,0.5-0.6,1-1.9,1.7l-0.9,0.5
		c-0.2,0.1-0.3,0.1-0.4,0.1c-0.4,0-0.6-0.3-0.6-0.8c-0.1-1-0.5-1.9-1.2-2.6c-0.7-0.7-1.5-1.1-2.4-1.1c-1.2,0-2.1,0.6-2.9,1.7
		c-0.8,1.1-1.2,2.5-1.2,4.2c0,2.6,0.6,4.7,1.7,6.3c1.2,1.7,2.6,2.5,4.4,2.5c1.6,0,3.2-0.6,4.8-1.7l0.3-0.1c0.2,0,0.3,0.1,0.3,0.4
		c0,0.5-0.5,1.1-1.6,1.9c-1.9,1.4-3.9,2.1-6,2.1c-2.3,0-4.3-0.8-5.8-2.4c-1.5-1.6-2.3-3.6-2.3-6c0-2.9,1-5.3,2.9-7.2
		C192.6,574,195,573,198,573z M175,574.2c-1.4,0-2.4,0.6-3.2,1.7c-0.8,1.2-1.2,2.7-1.2,4.7c0,2.7,0.6,5,1.9,6.9
		c1.2,1.9,2.7,2.9,4.5,2.9c1.3,0,2.4-0.5,3.2-1.6c0.8-1.1,1.3-2.5,1.3-4.2c0-2.9-0.6-5.3-1.9-7.3C178.3,575.2,176.8,574.2,175,574.2
		z M176.1,573c2.7,0,4.9,0.8,6.6,2.5c1.7,1.7,2.6,3.8,2.6,6.5c0,2.7-0.9,5-2.8,6.8c-1.9,1.8-4.2,2.7-7,2.7c-2.6,0-4.8-0.8-6.6-2.5
		c-1.8-1.7-2.6-3.8-2.6-6.3c0-2.7,1-4.9,2.9-6.8C171.1,574,173.4,573,176.1,573z M158.8,573c1,0,2,0.2,3.2,0.5
		c0.6,0.2,0.9,0.4,0.9,0.8l0,0.9l0.1,1.3l0,0.7c0,0.1,0,0.2,0,0.3c0,0.3-0.2,0.4-0.5,0.4c-0.2,0-0.6-0.5-1.1-1.4
		c-1-1.8-2.3-2.7-3.8-2.7c-0.8,0-1.4,0.2-2,0.7c-0.6,0.5-0.8,1-0.8,1.7c0,1.2,0.8,2.1,2.5,2.8l1.5,0.6c1.2,0.5,2.1,0.9,2.5,1.2
		c0.4,0.3,0.9,0.7,1.3,1.2c0.7,0.9,1,2,1,3.4c0,1.7-0.6,3.1-1.7,4.2c-1.1,1.2-2.5,1.7-4.1,1.7c-0.9,0-1.9-0.2-3.2-0.4l-1.5-0.4
		l-1-0.1c-0.3-0.1-0.5-0.3-0.5-0.6c0-0.1,0-0.3,0-0.5c0-0.2,0-0.5,0-0.8l-0.1-2.3l0-1c0-0.3,0-0.5,0.1-0.6c0.1-0.1,0.2-0.1,0.5-0.1
		c0.2,0,0.4,0.2,0.5,0.6c0.2,0.9,0.6,1.9,1.4,3.2c0.9,1.5,2.1,2.2,3.6,2.2c0.8,0,1.6-0.3,2.1-0.8c0.6-0.5,0.8-1.2,0.8-2
		c0-0.9-0.3-1.6-0.8-2.1c-0.5-0.5-1.6-1.1-3.1-1.7c-1.8-0.7-3.1-1.5-3.8-2.3c-0.7-0.8-1.1-1.9-1.1-3.2c0-1.6,0.6-3,1.8-3.9
		C155.1,573.5,156.7,573,158.8,573z M138.1,577.7l-2.8-6.5c-0.7-1.6-1.1-2.3-1.4-2.3c-0.2,0-0.5,0.5-0.9,1.5l-0.4,0.9l-2.5,5.7
		l-0.2,0.5c-0.1,0.2-0.1,0.4-0.1,0.6c0,0.5,0.5,0.7,1.5,0.7h6.3c0.5,0,0.8-0.2,0.8-0.5c0-0.1,0-0.2-0.1-0.4L138.1,577.7z
		 M137.3,564.4l9.7,22.1c0.5,1.1,1,2,1.7,2.5c0.7,0.5,1.5,0.9,2.5,1.1c0.3,0,0.4,0.2,0.4,0.6c0,0.4-0.2,0.6-0.5,0.6
		c-0.2,0-0.5-0.1-0.8-0.1c-1.1-0.2-2.8-0.4-5.3-0.4c-2.4,0-4.1,0.1-5,0.3c-0.2,0.1-0.4,0.1-0.5,0.1c-0.4,0-0.6-0.2-0.6-0.6
		c0-0.2,0.2-0.3,0.5-0.4c0.7-0.2,1.2-0.5,1.7-1.1c0.4-0.5,0.7-1,0.7-1.6c0-0.8-0.6-2.5-1.8-5.2c-0.4-0.8-0.8-1.3-1.3-1.4
		c-0.5-0.1-2.1-0.2-4.9-0.2h-2.9l-1.9,0.3c-0.5,0.2-1.1,1.2-1.8,2.8l-0.7,1.6c-0.2,0.5-0.3,0.9-0.3,1.4c0,1.8,1.2,2.8,3.7,3.1
		c0.5,0.1,0.8,0.3,0.8,0.6c0,0.4-0.3,0.6-0.8,0.6c-0.3,0-0.6,0-1.1-0.1c-0.9-0.2-1.8-0.3-2.5-0.3c-0.7,0-1.7,0.1-3.2,0.2
		c-1.1,0.1-1.8,0.2-2.1,0.2c-0.4,0-0.6-0.2-0.6-0.5c0-0.3,0.2-0.5,0.6-0.7c0.8-0.2,1.4-0.7,1.8-1.3c0.5-0.6,1.1-2,2.1-4.1l5.8-13.3
		c0.5-1.1,0.8-1.8,1-2.2l2-4c0.7-1.3,1-2,1-2c0,0,0,0.1,0,0.1s0.1-0.3,0.3-0.8c0.2-0.5,0.4-0.8,0.6-0.8c0.2,0,0.6,0.6,1.2,1.8
		L137.3,564.4z"/>
	<path class="st0" d="M422.1,618.5c-1.4,0-2.4,0.6-3.2,1.7c-0.8,1.2-1.2,2.7-1.2,4.7c0,2.7,0.6,5,1.9,6.9c1.2,1.9,2.7,2.9,4.5,2.9
		c1.3,0,2.4-0.5,3.2-1.6c0.8-1.1,1.3-2.5,1.3-4.2c0-2.9-0.6-5.3-1.9-7.3C425.4,619.5,423.9,618.5,422.1,618.5 M423.2,617.3
		c2.7,0,4.9,0.8,6.6,2.5c1.7,1.7,2.6,3.8,2.6,6.5c0,2.7-0.9,5-2.8,6.8c-1.9,1.8-4.2,2.7-7,2.7c-2.6,0-4.8-0.8-6.6-2.5
		c-1.8-1.7-2.6-3.8-2.6-6.3c0-2.7,1-4.9,2.9-6.8C418.1,618.3,420.5,617.3,423.2,617.3z M401.4,621.9l2.9,6.5
		c0.4,0.8,0.7,1.2,0.9,1.2c0.4,0,1.2-1.3,2.5-3.9c1.3-2.7,2-4.4,2-5.1c0-1.2-0.7-1.9-2.2-2c-0.4,0-0.5-0.2-0.5-0.5
		c0-0.3,0.2-0.5,0.6-0.5l1.1,0.1l1.3,0l1.8,0.1l0.9-0.1c0.3,0,0.6-0.1,0.7-0.1c0.3,0,0.4,0.1,0.4,0.4c0,0.3-0.2,0.5-0.5,0.7
		c-0.5,0.2-1,0.6-1.4,1.4l-1,1.9l-1.9,3.8c-3.2,6.4-5,9.6-5.5,9.6c-0.3,0-0.6-0.2-0.8-0.7l-0.2-0.5l-5.3-11.7l-0.4-0.8l-0.9-1.8
		c-0.4-0.8-0.8-1.3-1.2-1.4c-0.5-0.2-0.8-0.4-0.8-0.6c0-0.3,0.1-0.5,0.5-0.5l0.2,0c1.3,0.1,2.3,0.2,3.1,0.2c0.6,0,1.5-0.1,2.8-0.2
		c0.8-0.1,1.4-0.1,1.7-0.1c0.6,0,0.9,0,1,0.1c0.1,0.1,0.2,0.2,0.2,0.4c0,0.3-0.2,0.5-0.6,0.5c-1.4,0.2-2,0.7-2,1.4
		C400.8,620.4,401,621,401.4,621.9z M391.1,618.3v12c0,1.4,0.2,2.4,0.6,3c0.4,0.6,1.2,0.9,2.4,1c0.5,0,0.7,0.2,0.7,0.5
		c0,0.4-0.6,0.5-1.7,0.5c-0.1,0-0.4,0-0.9-0.1l-1.6-0.2c-0.9-0.1-1.5-0.1-1.7-0.1c-0.7,0-1.8,0.1-3,0.3c-0.3,0-0.6,0.1-0.7,0.1
		c-0.3,0-0.4-0.1-0.4-0.4c0-0.2,0.1-0.4,0.3-0.4l0.7-0.4c0.3-0.2,0.6-0.5,0.8-1.1c0.2-0.6,0.3-1.2,0.3-1.8l0-0.9v-7.1
		c0-1.1-0.1-1.8-0.3-2.3c-0.2-0.4-0.7-0.6-1.3-0.6h-0.5c-0.3,0-0.4-0.1-0.5-0.2c0-0.1-0.1-0.2-0.1-0.3c0-0.4,0.4-0.6,1.3-0.8
		c2.2-0.5,3.9-1.2,5.1-2.1c0.1-0.1,0.3-0.2,0.4-0.2c0.2,0,0.3,0.1,0.3,0.4l0,0.2C391.1,617.5,391.1,617.8,391.1,618.3z M388.8,606.7
		c0.3,0,0.8,0.5,1.6,1.4l0.9,1.2c0.2,0.3,0.3,0.5,0.3,0.7c0,0.3-0.4,1-1.2,1.9c-0.8,0.9-1.3,1.4-1.6,1.4c-0.2,0-0.4-0.1-0.6-0.3
		l-1-1.2l-0.9-1.1c-0.3-0.3-0.4-0.5-0.4-0.7c0-0.3,0.4-0.9,1.2-1.9C388,607.2,388.6,606.7,388.8,606.7z M377.1,620v10.3
		c0,1.3,0.2,2.1,0.6,2.6c0.4,0.5,1,0.7,2,0.7c0.4,0,0.9-0.1,1.5-0.3c0.6-0.2,1-0.4,1.3-0.6c0.1-0.1,0.3-0.2,0.3-0.2
		c0.2,0,0.3,0.1,0.3,0.4l0,0.2l-0.3,0.4c-1.2,1.8-3.4,2.1-5.4,2.1c-1.6,0-2.8-0.4-3.5-1.1c-0.7-0.7-1.1-1.8-1.1-3.3V620h-1.3
		c-0.7,0-1-0.2-1-0.6c0-0.2,0.2-0.5,0.5-0.7c0.6-0.4,1.5-1.2,2.6-2.4c1.1-1.2,1.9-2,2.3-2.7c0.4-0.7,0.8-1,1-1
		c0.1,0,0.2,0.1,0.2,0.3v4.9h3.1c0.6,0,0.9-0.1,1.2-0.3l0.5-0.4c0.1-0.1,0.2-0.1,0.4-0.1c0.2,0,0.4,0.1,0.3,0.3
		c0,0.1-0.1,0.3-0.2,0.5c-0.1,0.2-0.2,0.5-0.3,0.9c-0.1,0.7-0.5,1.1-1.2,1.1H377.1z M363.2,617.3c2.3,0,3.8,0.6,4.7,1.7
		c0.5,0.7,0.8,1.3,0.8,1.8c0,0.4-0.6,1-1.9,1.7l-0.9,0.5c-0.2,0.1-0.3,0.1-0.4,0.1c-0.4,0-0.6-0.3-0.6-0.8c-0.1-1-0.5-1.9-1.2-2.6
		c-0.7-0.7-1.5-1.1-2.4-1.1c-1.2,0-2.1,0.6-2.9,1.7c-0.8,1.1-1.2,2.5-1.2,4.2c0,2.6,0.6,4.7,1.7,6.3c1.2,1.7,2.6,2.5,4.4,2.5
		c1.6,0,3-0.9,4.8-1.7l0.3-0.1c0.2,0,0.3,0.1,0.3,0.4c0,0.5-0.5,1.1-1.6,1.9c-1.9,1.4-3.9,2.1-6,2.1c-2.3,0-4.3-0.8-5.8-2.4
		c-1.5-1.6-2.3-3.6-2.3-6c0-2.9,1-5.3,2.9-7.2C357.8,618.3,360.2,617.3,363.2,617.3z M339.7,622l-2.8-6.5c-0.7-1.6-1.1-2.3-1.4-2.3
		c-0.2,0-0.5,0.5-0.9,1.5l-0.4,0.9l-2.5,5.7l-0.2,0.5c-0.1,0.2-0.1,0.4-0.1,0.5c0,0.5,0.5,0.7,1.5,0.7h6.3c0.5,0,0.8-0.2,0.8-0.5
		c0-0.1,0-0.2-0.1-0.4L339.7,622z M338.9,608.7l9.7,22.1c0.5,1.1,1,2,1.7,2.5c0.6,0.6,1.5,0.9,2.5,1.1c0.3,0,0.4,0.2,0.4,0.6
		c0,0.4-0.2,0.6-0.5,0.6c-0.2,0-0.5-0.1-0.8-0.1c-1.1-0.2-2.8-0.4-5.3-0.4c-2.4,0-4.1,0.1-5,0.3c-0.2,0.1-0.4,0.1-0.5,0.1
		c-0.4,0-0.6-0.2-0.6-0.6c0-0.2,0.2-0.4,0.5-0.4c0.7-0.2,1.2-0.5,1.7-1.1c0.4-0.5,0.7-1,0.7-1.6c0-0.8-0.6-2.5-1.8-5.2
		c-0.4-0.8-0.8-1.3-1.3-1.4c-0.5-0.1-2.1-0.2-4.9-0.2h-2.9l-1.9,0.3c-0.6,0.1-1.1,1.2-1.8,2.8l-0.7,1.6c-0.2,0.5-0.3,0.9-0.3,1.4
		c0,1.8,1.2,2.8,3.7,3.1c0.5,0.1,0.8,0.3,0.8,0.6c0,0.4-0.3,0.6-0.8,0.6c-0.3,0-0.6,0-1.1-0.1c-0.9-0.2-1.8-0.3-2.5-0.3
		c-0.7,0-1.7,0.1-3.2,0.2c-1.1,0.1-1.8,0.2-2.1,0.2c-0.4,0-0.6-0.2-0.6-0.5c0-0.3,0.2-0.5,0.6-0.7c0.8-0.3,1.4-0.7,1.8-1.3
		c0.5-0.6,1.2-2,2.1-4.1l5.8-13.3c0.5-1.1,0.8-1.8,1-2.2l2-4c0.7-1.3,1-2,1-2c0,0,0,0.1,0,0.1s0.1-0.3,0.3-0.8
		c0.2-0.5,0.4-0.8,0.6-0.8c0.2,0,0.6,0.6,1.2,1.8L338.9,608.7z M300.3,618.5c-1.4,0-2.4,0.6-3.2,1.7c-0.8,1.2-1.2,2.7-1.2,4.7
		c0,2.7,0.6,5,1.9,6.9c1.2,1.9,2.7,2.9,4.5,2.9c1.3,0,2.4-0.5,3.2-1.6c0.8-1.1,1.3-2.5,1.3-4.2c0-2.9-0.6-5.3-1.9-7.3
		C303.6,619.5,302.1,618.5,300.3,618.5z M301.4,617.3c2.7,0,4.9,0.8,6.6,2.5c1.7,1.7,2.6,3.8,2.6,6.5c0,2.7-0.9,5-2.8,6.8
		c-1.9,1.8-4.2,2.7-7,2.7c-2.6,0-4.8-0.8-6.6-2.5c-1.8-1.7-2.6-3.8-2.6-6.3c0-2.7,1-4.9,2.9-6.8
		C296.4,618.3,298.7,617.3,301.4,617.3z M286.8,625.2v5.9c0,1.1,0.2,1.8,0.5,2.3c0.3,0.4,1,0.7,2,0.8c0.5,0.1,0.7,0.3,0.7,0.6
		c0,0.4-0.2,0.6-0.6,0.6c-0.5,0-1.5-0.1-3-0.4c-0.8-0.1-1.4-0.2-1.8-0.2c-0.6,0-1.5,0.1-2.7,0.3c-0.4,0.1-0.7,0.1-0.9,0.1
		c-0.3,0-0.4-0.1-0.4-0.4c0-0.2,0.1-0.4,0.4-0.6c0.6-0.3,1-0.6,1.2-0.9c0.2-0.3,0.3-0.7,0.3-1.4l0-1v-5.8c0-1.9-0.3-3.3-1-4.3
		c-0.6-0.9-1.6-1.4-3-1.4c-1.1,0-1.9,0.3-2.6,0.9c-0.7,0.6-1,1.4-1,2.3v7.6c0,1.4,0.2,2.3,0.6,2.9c0.4,0.5,1.1,0.9,2.3,1
		c0.5,0.1,0.8,0.2,0.8,0.5c0,0.4-0.3,0.6-0.8,0.6c-0.6,0-1.6-0.1-3-0.3c-0.9-0.1-1.6-0.2-2.2-0.2c-0.5,0-1.2,0.1-2.3,0.3
		c-0.4,0.1-0.7,0.1-1,0.1c-0.4,0-0.6-0.1-0.6-0.5c0-0.2,0.1-0.4,0.3-0.5c0.6-0.3,1.1-0.6,1.3-0.9c0.2-0.3,0.3-0.9,0.3-1.7l0-0.9
		v-5.5c0-1.9-0.3-3.3-0.9-4.2c-0.6-0.9-1.5-1.3-2.8-1.3c-1.1,0-2,0.4-2.8,1.1c-0.7,0.7-1.1,1.6-1.1,2.7v7.7c0,1,0.2,1.7,0.6,2.1
		c0.4,0.4,1.2,0.8,2.4,1.1c0.4,0.1,0.7,0.3,0.7,0.5c0,0.3-0.2,0.5-0.7,0.5c-0.4,0-0.8,0-1.2-0.1l-1.9-0.2c-0.8-0.1-1.5-0.1-2.1-0.1
		c-0.9,0-1.8,0.1-2.5,0.3c-0.4,0.1-0.6,0.1-0.9,0.1c-0.4,0-0.6-0.2-0.6-0.5c0-0.2,0.1-0.3,0.4-0.5c0.6-0.3,1-0.6,1.2-1
		c0.2-0.4,0.3-0.9,0.3-1.6l0-1.1V623c0-1.3-0.1-2.1-0.4-2.4c-0.3-0.4-0.9-0.5-1.8-0.5c-0.4,0-0.5-0.2-0.5-0.5c0-0.3,0.4-0.5,1.1-0.7
		l1.7-0.5l1.2-0.4c0.7-0.2,1.5-0.6,2.4-1.3c0.1-0.1,0.2-0.1,0.3-0.1c0.2,0,0.4,0.1,0.3,0.5l0,0.5l-0.1,1.4c0,0.2,0,0.3,0,0.5
		c0,0.5,0.1,0.8,0.4,0.8c0.1,0,0.2-0.1,0.3-0.2l0.9-1c1.2-1.4,2.7-2,4.5-2c0.9,0,1.9,0.3,2.9,1c1,0.6,1.7,1.3,2,2.1
		c0.2,0.4,0.3,0.7,0.4,0.7c0.1,0,0.2-0.1,0.4-0.4c0.7-1,1.6-1.8,2.7-2.4c1.1-0.6,2.2-0.9,3.2-0.9
		C284.7,617.2,286.8,619.9,286.8,625.2z M248.6,617.3c1,0,2,0.2,3.2,0.5c0.6,0.2,0.9,0.4,0.9,0.8l0,0.9l0.1,1.3l0,0.7
		c0,0.1,0,0.2,0,0.3c0,0.3-0.2,0.4-0.4,0.4c-0.2,0-0.6-0.5-1.1-1.4c-1-1.8-2.3-2.7-3.8-2.7c-0.8,0-1.4,0.2-2,0.7
		c-0.6,0.5-0.8,1-0.8,1.7c0,1.2,0.8,2.1,2.5,2.8l1.5,0.6c1.2,0.5,2.1,0.9,2.5,1.2c0.5,0.3,0.9,0.7,1.3,1.2c0.7,0.9,1,2,1,3.4
		c0,1.7-0.6,3.1-1.7,4.2c-1.1,1.2-2.5,1.7-4.1,1.7c-0.9,0-1.9-0.1-3.2-0.4l-1.5-0.4l-1-0.1c-0.3,0-0.5-0.3-0.5-0.6
		c0-0.1,0-0.3,0-0.5c0-0.2,0.1-0.5,0-0.8l-0.1-2.3l0-1c0-0.3,0-0.5,0.1-0.6c0.1-0.1,0.2-0.1,0.5-0.1c0.2,0,0.4,0.2,0.5,0.6
		c0.2,0.9,0.6,2,1.4,3.2c0.9,1.5,2.1,2.2,3.6,2.2c0.8,0,1.6-0.3,2.1-0.8c0.6-0.5,0.8-1.2,0.8-2c0-0.9-0.3-1.6-0.8-2.1
		c-0.5-0.5-1.6-1.1-3.1-1.7c-1.8-0.7-3.1-1.5-3.8-2.3c-0.7-0.8-1.1-1.9-1.1-3.2c0-1.7,0.6-3,1.8-3.9
		C245,617.8,246.6,617.3,248.6,617.3z M237.1,618.3v12c0,1.4,0.2,2.4,0.6,3c0.4,0.6,1.2,0.9,2.4,1c0.5,0,0.7,0.2,0.7,0.5
		c0,0.4-0.6,0.5-1.7,0.5c-0.1,0-0.4,0-0.9-0.1l-1.6-0.2c-0.9-0.1-1.5-0.1-1.7-0.1c-0.7,0-1.8,0.1-3,0.3c-0.3,0-0.6,0.1-0.7,0.1
		c-0.3,0-0.4-0.1-0.4-0.4c0-0.2,0.1-0.4,0.3-0.4l0.7-0.4c0.3-0.2,0.6-0.5,0.8-1.1c0.2-0.6,0.3-1.2,0.3-1.8l0-0.9v-7.1
		c0-1.1-0.1-1.8-0.3-2.3c-0.2-0.4-0.7-0.6-1.3-0.6h-0.5c-0.3,0-0.5-0.1-0.5-0.2c0-0.1-0.1-0.2-0.1-0.3c0-0.4,0.4-0.6,1.3-0.8
		c2.2-0.5,3.9-1.2,5.1-2.1c0.1-0.1,0.3-0.2,0.4-0.2c0.2,0,0.3,0.1,0.3,0.4l0,0.2C237.1,617.5,237.1,617.8,237.1,618.3z M234.8,606.7
		c0.3,0,0.8,0.5,1.6,1.4l0.9,1.2c0.2,0.3,0.3,0.5,0.3,0.7c0,0.3-0.4,1-1.2,1.9c-0.8,0.9-1.3,1.4-1.6,1.4c-0.2,0-0.4-0.1-0.6-0.3
		l-1-1.2l-0.9-1.1c-0.2-0.3-0.4-0.5-0.4-0.7c0-0.3,0.4-0.9,1.2-1.9C234,607.2,234.6,606.7,234.8,606.7z M220.8,624.6v5.9
		c0,2.2,1,3.5,3.1,3.8c0.4,0.1,0.7,0.2,0.7,0.5c0,0.4-0.2,0.5-0.5,0.5c-0.2,0-0.4,0-0.6-0.1c-1.4-0.2-2.9-0.3-4.4-0.3
		c-0.8,0-1.5,0-2.1,0.1l-1.3,0.1c-0.2,0-0.5,0-0.7,0c-0.4,0-0.6-0.2-0.6-0.6c0-0.3,0.2-0.4,0.5-0.5c1.1-0.3,1.7-1.3,1.7-3.2l0-0.9
		v-7.6c0-1-0.1-1.7-0.4-2c-0.3-0.3-0.8-0.5-1.7-0.6c-0.3,0-0.5-0.2-0.5-0.5c0-0.3,0.2-0.5,0.6-0.6c1.9-0.3,3.6-0.8,5-1.6l0.8-0.5
		c0.1-0.1,0.2-0.1,0.3-0.1c0.2,0,0.3,0.2,0.3,0.5c0,0.1,0,0.3,0,0.6l-0.1,1.2l-0.1,1.3l0,0.2c0,0.2,0.2,0.3,0.3,0.3
		c0.1,0,0.4-0.3,0.9-1c0.4-0.5,1-1.1,1.7-1.7c0.8-0.6,1.3-0.9,1.6-0.9c0.5,0,1.2,0.4,2.2,1.1c1,0.7,1.5,1.3,1.5,1.6
		c0,0.1-0.2,0.6-0.7,1.5c-0.6,1.1-1.1,1.6-1.5,1.6c-0.2,0-0.4-0.1-0.5-0.2l-0.6-0.5c-0.7-0.7-1.5-1-2.5-1
		C221.6,621.3,220.8,622.4,220.8,624.6z M208.9,617.6v13.1c0,1.4,0.1,2.2,0.3,2.5c0.2,0.3,0.8,0.5,1.8,0.5l0.5,0c0.2,0,0.3,0,0.4,0
		c0.2,0.1,0.4,0.2,0.4,0.5c0,0.5-0.5,0.8-1.4,0.8h-1c-0.6,0-1,0-1.4,0c-0.9,0.1-1.9,0.2-3,0.5c-0.1,0-0.3,0.1-0.4,0.1
		c-0.3,0-0.5-0.3-0.5-0.8c0-0.3,0-0.5,0-0.7c0-0.3,0-0.5,0-0.6c0-0.4-0.1-0.6-0.3-0.7c-0.1,0-0.2,0.1-0.3,0.3l-0.8,0.8
		c-1.3,1.3-2.9,2-4.7,2c-2.1,0-3.7-0.6-4.7-1.7c-1.1-1.2-1.6-2.9-1.6-5.1c0-3,0.1-5.6,0.2-7.8c0-0.4,0-0.7,0-1c0-1-0.4-1.5-1.3-1.5
		l-0.9-0.1c-0.4,0-0.6-0.2-0.6-0.6c0-0.3,0.2-0.4,0.7-0.5c0.4-0.1,1.2-0.1,2.4-0.1c1.1,0,2.1-0.2,3-0.4c0.4-0.1,0.7-0.2,0.9-0.2
		c0.2,0,0.4,0.2,0.4,0.5c0,0.4,0,0.8,0,1.2c-0.1,1.5-0.2,4.1-0.2,7.8c0,2.9,0.3,4.8,0.8,5.8c0.5,1,1.6,1.4,3.1,1.4
		c1.2,0,2.2-0.4,2.8-1.1c0.7-0.7,1-1.8,1-3.1v-7.9c0-1.2-0.1-1.9-0.3-2.2c-0.2-0.3-0.8-0.5-1.8-0.6c-0.4-0.1-0.7-0.2-0.7-0.5
		c0-0.4,0.4-0.7,1.3-0.7c2.5,0,4.2-0.2,5.1-0.5c0.2-0.1,0.3-0.1,0.4-0.1c0.2,0,0.3,0.1,0.3,0.4L208.9,617.6z M178.7,611.4v16
		c0,2.4,0.4,4.1,1,5.1c0.7,1,1.9,1.5,3.7,1.7c0.5,0,0.8,0.3,0.8,0.8c0,0.3-0.2,0.5-0.7,0.5c-0.1,0-0.3,0-0.5,0l-1.6-0.1l-2.6-0.2
		c-0.2,0-0.5,0-0.8,0c-0.8,0-1.6,0-2.2,0.1l-4.7,0.3c-0.5,0-0.8,0.1-1,0.1c-0.4,0-0.7-0.2-0.6-0.6c0-0.3,0.1-0.5,0.2-0.6
		c0.1-0.1,0.4-0.2,0.8-0.2c1.1-0.1,2-0.5,2.5-1.2c0.6-0.7,0.9-1.7,0.9-3l0-1v-18.8c0-1.1-0.6-1.7-1.8-1.7c-2.8,0-4.7,0.2-5.8,0.6
		c-0.8,0.3-1.2,0.7-1.5,1.1c-0.2,0.4-0.6,1.4-1,2.9l-0.2,0.6c-0.2,0.6-0.4,0.9-0.7,0.9c-0.5,0-0.7-0.2-0.7-0.7
		c0-0.4,0.1-0.9,0.2-1.6l0.2-1.8l0.3-1.9l0.1-1.3c0.1-0.5,0.4-0.8,0.9-0.8c0.1,0,0.4,0,0.7,0c0.5,0,1.3,0.1,2.4,0.1l4.3,0l5.1,0.1
		c3.3,0,6.8-0.1,10.5-0.3c0.7,0,1.2,0,1.4,0c0.8,0,1.2,0.3,1.2,1l0.1,1.5c0,0.2,0.1,0.8,0.2,1.7c0.1,0.7,0.2,1.3,0.2,1.8
		c0,0.5-0.2,0.7-0.6,0.7c-0.3,0-0.6-0.3-0.7-0.8c-0.3-1.3-0.9-2.3-1.7-2.8c-0.8-0.6-2.1-0.9-3.7-0.9c-2.1,0-3.5,0.2-4,0.5
		C179,609.3,178.7,610.1,178.7,611.4z M471.3,582v4.3c0,0.9,0.1,1.5,0.1,1.9c0.1,0.3,0.3,0.7,0.7,0.9c0.5,0.4,1.2,0.7,1.9,0.7
		c0.4,0.1,0.7,0.2,0.7,0.5c0,0.4-0.5,0.6-1.5,0.6c-0.2,0-0.5,0-0.9-0.1l-1.4-0.2c-0.6-0.1-1.1-0.1-1.5-0.1c-1.3,0-2.4,0.1-3.2,0.3
		c-0.3,0.1-0.6,0.1-0.8,0.1c-0.3,0-0.5-0.2-0.5-0.5c0-0.2,0.2-0.4,0.5-0.5c0.6-0.2,1-0.5,1.2-1c0.2-0.4,0.3-1.2,0.3-2.3v-5
		c0-1.9-0.4-3.4-1.1-4.6c-0.8-1.1-1.8-1.7-3.1-1.7c-1.2,0-2.1,0.3-2.9,1c-0.7,0.7-1.1,1.5-1.1,2.5v7.1c0,1.3,0.2,2.2,0.7,2.8
		c0.5,0.6,1.3,0.9,2.5,1c0.4,0,0.6,0.2,0.6,0.5c0,0.4-0.2,0.6-0.7,0.6c-0.5,0-1,0-1.7-0.1c-1.6-0.2-2.7-0.3-3.3-0.3
		c-0.8,0-1.8,0.1-2.8,0.2c-0.5,0.1-0.9,0.1-1,0.1c-0.4,0-0.5-0.2-0.5-0.5c0-0.2,0.1-0.4,0.4-0.5c0.7-0.3,1.2-0.6,1.4-0.9
		c0.2-0.3,0.3-0.9,0.3-1.8l0-0.7v-7.5l0-0.8c0-1-0.1-1.7-0.3-2.1c-0.2-0.4-0.6-0.6-1.1-0.6h-1c-0.1,0-0.3,0-0.3-0.1
		c-0.1-0.1-0.1-0.2-0.1-0.3c0-0.3,0.1-0.5,0.3-0.6c0.2-0.1,0.8-0.3,1.9-0.5c1.8-0.4,3.3-1,4.5-1.8c0.1-0.1,0.2-0.1,0.3-0.1
		c0.2,0,0.3,0.1,0.3,0.4l-0.1,1.1l0,1.2l0.1,0.8c0.1,0.2,0.1,0.3,0.3,0.3c0.1,0,0.3-0.2,0.7-0.6c1.3-1.6,3-2.4,5.1-2.4
		c2.3,0,3.9,0.7,4.9,2.1C470.8,576.5,471.3,578.8,471.3,582z"/>
	<path class="st0" d="M300.1,337.8c6.1,2.5,11.4,3.5,18.9,6.1c5,1.7,11.7,2.8,17.7,4.6c4.2,1.3,9.6,2.9,13.1,3.9
		c3.7,1.1,4.4,1.3,8.1,2.6c4.3,1.7,8.2-1.8,5.7-6.2c-1.9-3.3-2.9-4.3-4.4-7.8L334,283.2l-8.3-20.8c-4-9-5.5-13.1-10.9-21.7l-2.8-8.1
		l-9.8-19.8c-2.4-5.3-5.7-6.7-8.8,1.8l-2,5l-12.7,27.3l-1.8,5.3l-15,31.3c-9.3,19-17,41.7-27.4,61.2c-3.8,5.6-4.8,14.8,4.6,9.3
		l4.3-1.6l17.7-4.2l6.6-3l10.8-3.1l7.6-2.7c1.8-0.6,3.7-1.3,5.6-1.7C294.8,337,297.2,336.6,300.1,337.8 M345.6,345.5l-3.8-1.2
		l-24.5-6l-16-6.3c-3.1-1.1-3.5-1.1-4.4-3.2c-0.9-2.3,0.7-6,0.5-9c-0.4-6.1-1.1-19.4-1.3-23.4c-0.2-4,0.9-7.8,0.7-13.3
		c0-1.2-0.3-4.8-0.2-7.8c0.1-2.5,0.8-5.1,0.9-7.1c0.1-1.1-0.8-8.2-0.8-16.1c0-3.7,0.6-7.5,0.5-11.8c-0.1-2.1-0.9-4.7-0.9-6.8
		c0.1-5.8,1.8-4.6,1.2-9.5c-0.5-3.9,0.7-3.8,1.6-0.6c2.4,8.3,4.5,7,6.7,14.8c2.3,7.8,7.7,18.5,12.4,26l7,16.9
		c0.9,1.6,3.2,6.3,5.8,12.7c1.4,3.2,1.5,6.8,3.2,10.6c2.2,4.9,6,10,7.6,14.9c1.7,5,5,12.2,6.3,16.4c1.1,3.4,3,5.8,4.2,7.9
		C355.2,348.2,349.8,346.2,345.6,345.5z"/>
</g>
</svg>
