<?xml version="1.0" encoding="utf-8"?>
<!-- Generator: Adobe Illustrator 16.0.3, SVG Export Plug-In . SVG Version: 6.00 Build 0)  -->
<!DOCTYPE svg PUBLIC "-//W3C//DTD SVG 1.1//EN" "http://www.w3.org/Graphics/SVG/1.1/DTD/svg11.dtd">
<svg version="1.1" id="Layer_1" xmlns="http://www.w3.org/2000/svg" xmlns:xlink="http://www.w3.org/1999/xlink" x="0px" y="0px"
	 width="2208px" height="2208px" viewBox="0 0 2208 2208" enable-background="new 0 0 2208 2208" xml:space="preserve">
<g>
	<polygon fill="#62B522" points="1694.808,309.024 1689.489,309.024 495.547,309.024 495.547,1478.665 495.547,1508.322 
		836.836,1508.322 1092.518,1860.396 1308.829,1508.322 1694.808,1508.322 	"/>
	<path fill="#FFFFFF" d="M808.621,620.843c6.574,0,12.446,3.508,17.69,10.637c5.17,7.054,7.793,16.804,7.793,29.028v620.83
		c0,16.989-4.248,28.844-12.742,35.455c-8.494,6.573-17.025,6.573-25.557,0c-8.494-6.611-12.705-18.466-12.705-35.455v-620.83
		c0-8.494,1.182-15.807,3.545-21.974c2.364-6.131,5.393-10.6,9.159-13.443C799.609,622.246,803.856,620.843,808.621,620.843
		 M1145.922,660.507c20.793-14.182,41.549-25.003,62.415-32.574c20.683-7.534,39.369-11.818,55.953-12.742
		c16.508-0.96,32.61-0.517,48.196,1.403c15.584,1.92,28.807,5.429,39.664,10.6c10.858,5.207,20.313,10.193,28.364,14.92
		c8.014,4.727,13.961,8.974,17.69,12.741l5.725,5.65v362.896c-2.844-2.844-6.906-6.39-12.077-10.637
		c-5.207-4.284-16.509-10.674-34.014-19.131c-17.507-8.531-35.677-13.959-54.587-16.323c-18.909-2.327-42.767-0.222-71.573,6.389
		c-28.844,6.648-57.614,19.611-86.422,38.964c-28.845,19.389-57.429,32.611-85.793,39.665c-28.328,7.128-52.703,8.791-73.015,4.986
		c-20.313-3.768-38.262-8.716-53.848-14.884c-15.585-6.13-27.146-12.52-34.716-19.13l-11.338-9.897V660.507
		c2.844,2.844,6.833,6.39,12.04,10.636c5.171,4.284,16.509,10.452,34.015,18.466c17.506,8.015,35.677,13.222,54.586,15.586
		c18.909,2.327,42.73,0.221,71.574-6.39C1087.569,692.196,1116.635,679.417,1145.922,660.507"/>
</g>
</svg>
