<?xml version="1.0" encoding="utf-8"?>
<!-- Generator: Adobe Illustrator 16.0.3, SVG Export Plug-In . SVG Version: 6.00 Build 0)  -->
<!DOCTYPE svg PUBLIC "-//W3C//DTD SVG 1.1//EN" "http://www.w3.org/Graphics/SVG/1.1/DTD/svg11.dtd">
<svg version="1.1" id="Layer_1" xmlns="http://www.w3.org/2000/svg" xmlns:xlink="http://www.w3.org/1999/xlink" x="0px" y="0px"
	 width="2208px" height="2208px" viewBox="0 0 2208 2208" enable-background="new 0 0 2208 2208" xml:space="preserve">
<path fill="#ffffff" d="M1060.982-1532.898c0.206,0,0.391,0.111,0.554,0.333c0.162,0.222,0.244,0.525,0.244,0.908v19.413
	c0,0.531-0.134,0.901-0.399,1.108c-0.266,0.206-0.532,0.206-0.798,0c-0.267-0.207-0.399-0.577-0.399-1.108v-19.413
	c0-0.266,0.037-0.494,0.112-0.687c0.073-0.192,0.168-0.332,0.287-0.421C1060.701-1532.854,1060.834-1532.898,1060.982-1532.898
	 M1071.53-1531.657c0.649-0.443,1.3-0.782,1.95-1.019c0.649-0.236,1.233-0.369,1.75-0.399c0.518-0.029,1.021-0.015,1.508,0.044
	c0.487,0.061,0.9,0.17,1.24,0.333c0.34,0.162,0.637,0.317,0.888,0.465c0.25,0.148,0.436,0.281,0.553,0.399l0.178,0.177v11.346
	c-0.088-0.088-0.215-0.198-0.377-0.332c-0.163-0.133-0.517-0.333-1.063-0.598c-0.547-0.266-1.115-0.436-1.706-0.51
	c-0.593-0.073-1.338-0.007-2.238,0.2c-0.902,0.207-1.802,0.612-2.704,1.218c-0.901,0.605-1.795,1.019-2.681,1.241
	c-0.888,0.222-1.648,0.273-2.282,0.154c-0.637-0.117-1.197-0.272-1.684-0.465c-0.489-0.191-0.851-0.391-1.088-0.598l-0.354-0.312
	v-11.346c0.088,0.089,0.214,0.2,0.377,0.333c0.161,0.133,0.516,0.325,1.064,0.576c0.546,0.251,1.113,0.414,1.704,0.487
	c0.593,0.073,1.338,0.008,2.239-0.199S1070.614-1531.065,1071.53-1531.657"/>
<path fill="#ffffff" d="M564.943,446.621c12.47,0,23.639,6.738,33.507,20.152c9.811,13.415,14.774,31.795,14.774,54.961v1174.799
	c0,32.149-8.095,54.547-24.17,67.077c-16.074,12.469-32.209,12.469-48.283,0c-16.133-12.53-24.172-34.928-24.172-67.077V521.734
	c0-16.074,2.246-29.903,6.797-41.546c4.433-11.642,10.165-20.093,17.375-25.471C547.923,449.34,555.96,446.621,564.943,446.621
	 M1203.254,521.734c39.301-26.831,78.659-47.337,118.018-61.639c39.301-14.301,74.642-22.339,105.902-24.171
	c31.323-1.773,61.759-0.887,91.249,2.659c29.487,3.665,54.487,10.283,75.052,20.152c20.567,9.811,38.533,19.207,53.72,28.13
	c15.129,8.983,26.358,17.021,33.449,24.172l10.757,10.696v686.595c-5.32-5.318-13.003-11.996-22.812-20.094
	c-9.87-8.037-31.263-20.151-64.357-36.167c-33.095-16.075-67.49-26.357-103.244-30.849c-35.871-4.433-80.963-0.414-135.452,12.115
	c-54.605,12.528-109.032,37.054-163.64,73.694c-54.547,36.641-108.622,61.639-162.224,75.113
	c-53.72,13.414-99.757,16.547-138.109,9.337c-38.532-7.092-72.453-16.488-101.886-28.131
	c-29.607-11.583-51.473-23.639-65.834-36.167l-21.393-18.853V521.734c5.318,5.378,12.94,12.115,22.812,20.152
	c9.751,8.037,31.203,19.679,64.415,34.868c33.037,15.188,67.373,25.057,103.127,29.488c35.871,4.433,80.963,0.473,135.51-12.056
	S1147.821,557.547,1203.254,521.734"/>
</svg>
