<?xml version="1.0" encoding="utf-8"?>
<!-- Generator: Adobe Illustrator 16.0.3, SVG Export Plug-In . SVG Version: 6.00 Build 0)  -->
<!DOCTYPE svg PUBLIC "-//W3C//DTD SVG 1.1//EN" "http://www.w3.org/Graphics/SVG/1.1/DTD/svg11.dtd">
<svg version="1.1" id="Layer_1" xmlns="http://www.w3.org/2000/svg" xmlns:xlink="http://www.w3.org/1999/xlink" x="0px" y="0px"
	 width="2208px" height="2208px" viewBox="0 0 2208 2208" enable-background="new 0 0 2208 2208" xml:space="preserve">
<g>
	<polygon fill="#FFA311" points="1705.013,308.025 1699.65,308.025 495.547,308.025 495.547,1487.584 495.547,1517.494 
		839.741,1517.494 1097.598,1872.563 1315.751,1517.494 1705.013,1517.494 	"/>
	<path fill="#FFFFFF" d="M877.881,723.138h444.76c111.703,0,167.535,55.832,167.535,167.535v111.18
		c0,111.703-55.832,167.535-167.535,167.535h-444.76c-111.702,0-167.572-55.832-167.572-167.535v-111.18
		C710.309,778.97,766.179,723.138,877.881,723.138 M869.501,787.834c-5.587-5.549-12.18-8.38-19.815-8.38
		c-7.599,0-14.229,2.831-19.778,8.38c-5.587,5.587-8.381,12.217-8.381,19.815c0,7.635,2.794,13.967,8.381,19.033
		c5.549,5.103,11.956,7.636,19.032,7.636c5.103,0,9.909-1.006,14.489-3.054s8.12-5.364,10.615-9.945
		c2.569-4.507,3.836-9.312,3.836-14.451C877.881,799.791,875.088,793.422,869.501,787.834 M1016.512,584.507h167.499
		c17.281,0,31.249,3.798,41.901,11.435c10.69,7.598,18.511,17.505,23.614,29.686c5.103,12.179,11.174,30.989,18.287,56.354H932.746
		c5.064-19.257,9.385-33.746,12.887-43.43c3.576-9.647,8.417-19.256,14.526-28.94c6.108-9.609,13.706-16.202,22.832-19.778
		C992.153,586.257,1003.29,584.507,1016.512,584.507 M1100.28,779.455c-46.708,0-86.337,15.755-118.816,47.228
		c-32.553,31.511-48.717,71.588-48.717,120.343c0,45.665,16.463,84.773,49.462,117.252c33,32.516,72.371,48.755,118.072,48.755
		c46.708,0,86.263-15.979,118.816-47.973c32.479-31.995,48.718-71.327,48.718-118.034c0-47.75-16.239-87.604-48.718-119.598
		C1186.543,795.433,1146.987,779.455,1100.28,779.455 M1100.28,834.318c32.48,0,59.11,10.392,79.968,31.212
		c20.821,20.821,31.213,47.974,31.213,81.495c0,33.522-10.169,60.414-30.432,80.713c-20.372,20.3-47.265,30.431-80.75,30.431
		c-33.521,0-60.414-10.131-80.75-30.431c-20.337-20.299-30.468-47.191-30.468-80.713c0-33.521,10.43-60.674,31.212-81.495
		C1041.133,844.71,1067.8,834.318,1100.28,834.318"/>
</g>
</svg>
