<?xml version="1.0" encoding="utf-8"?>
<!-- Generator: Adobe Illustrator 16.0.3, SVG Export Plug-In . SVG Version: 6.00 Build 0)  -->
<!DOCTYPE svg PUBLIC "-//W3C//DTD SVG 1.1//EN" "http://www.w3.org/Graphics/SVG/1.1/DTD/svg11.dtd">
<svg version="1.1" id="Layer_1" xmlns="http://www.w3.org/2000/svg" xmlns:xlink="http://www.w3.org/1999/xlink" x="0px" y="0px"
	 width="2208px" height="2208px" viewBox="0 0 2208 2208" enable-background="new 0 0 2208 2208" xml:space="preserve">
<path d="M1060.982-1532.898c0.206,0,0.391,0.111,0.554,0.333c0.162,0.222,0.244,0.525,0.244,0.908v19.413
	c0,0.531-0.134,0.901-0.399,1.108c-0.266,0.206-0.532,0.206-0.798,0c-0.267-0.207-0.399-0.577-0.399-1.108v-19.413
	c0-0.266,0.037-0.494,0.112-0.687c0.073-0.192,0.168-0.332,0.287-0.421C1060.701-1532.854,1060.834-1532.898,1060.982-1532.898
	 M1071.53-1531.657c0.649-0.443,1.3-0.782,1.95-1.019c0.649-0.236,1.233-0.369,1.75-0.399c0.518-0.029,1.021-0.015,1.508,0.044
	c0.487,0.061,0.9,0.17,1.24,0.333c0.34,0.162,0.637,0.317,0.888,0.465c0.25,0.148,0.436,0.281,0.553,0.399l0.178,0.177v11.346
	c-0.088-0.088-0.215-0.198-0.377-0.332c-0.163-0.133-0.517-0.333-1.063-0.598c-0.547-0.266-1.115-0.436-1.706-0.51
	c-0.593-0.073-1.338-0.007-2.238,0.2c-0.902,0.207-1.802,0.612-2.704,1.218c-0.901,0.605-1.795,1.019-2.681,1.241
	c-0.888,0.222-1.648,0.273-2.282,0.154c-0.637-0.117-1.197-0.272-1.684-0.465c-0.489-0.191-0.851-0.391-1.088-0.598l-0.354-0.312
	v-11.346c0.088,0.089,0.214,0.2,0.377,0.333c0.161,0.133,0.516,0.325,1.064,0.576c0.546,0.251,1.113,0.414,1.704,0.487
	c0.593,0.073,1.338,0.008,2.239-0.199S1070.614-1531.065,1071.53-1531.657"/>
<g>
	<path d="M1917.037,1072.129c10.003,389.729-258.63,728.196-642.948,799.404c-336.551,62.36-620.266-38.654-827.706-312.702
		C150.132,1167.594,293.22,602.702,735.307,388.473c325.994-157.96,710.584-95.801,958.733,155.02
		C1831.579,682.468,1911.967,872.981,1917.037,1072.129 M1115.1,1726.798c130.343,0.752,253.081-38.654,350.528-112.735
		c251.367-190.993,325.727-549.47,173.043-833.323c-140.762-261.441-438.524-384.52-718.609-290.912
		C688.708,567.132,551.443,733.59,505.731,970.362C429.116,1366.258,711.802,1729.537,1115.1,1726.798"/>
	<text transform="matrix(1.0791 0 0 1 914.4448 1545.6367)" font-family="'Nunito-Black'" font-size="1291.7891">!</text>
</g>
</svg>
