<?xml version="1.0" encoding="utf-8"?>
<!-- Generator: Adobe Illustrator 16.0.3, SVG Export Plug-In . SVG Version: 6.00 Build 0)  -->
<!DOCTYPE svg PUBLIC "-//W3C//DTD SVG 1.1//EN" "http://www.w3.org/Graphics/SVG/1.1/DTD/svg11.dtd">
<svg version="1.1" id="Layer_1" xmlns="http://www.w3.org/2000/svg" xmlns:xlink="http://www.w3.org/1999/xlink" x="0px" y="0px"
	 width="2208px" height="2208px" viewBox="0 0 2208 2208" enable-background="new 0 0 2208 2208" xml:space="preserve">
<g>
	<polygon fill="#C40606" points="1719.485,309.024 1714.06,309.024 495.547,309.024 495.547,1502.697 495.547,1532.965 
		843.86,1532.965 1104.802,1892.322 1325.566,1532.965 1719.485,1532.965 	"/>
	<text transform="matrix(1.079 0 0 1 1017.606 1131.3789)" fill="#FFFFFF" font-family="'Nunito-Black'" font-size="600.8164">!</text>
	<path fill="#FFFFFF" d="M1483.949,911.082c4.636,181.261-120.278,338.703-299.014,371.833
		c-156.574,29.023-288.495-17.979-384.986-145.453c-137.804-181.978-71.238-444.692,134.333-544.313
		c151.638-73.462,330.562-44.552,445.975,72.105C1444.183,729.895,1481.573,818.472,1483.949,911.082 M1110.985,1215.597
		c60.571,0.376,117.675-17.979,163.017-52.468c116.885-88.803,151.523-255.515,80.473-387.55
		c-65.471-121.632-203.95-178.849-334.215-135.315c-107.611,35.958-171.462,113.416-192.758,223.514
		C791.92,1047.867,923.354,1216.84,1110.985,1215.597"/>
</g>
</svg>
